<?xml version="1.0" encoding="UTF-8" standalone="no"?>
<!DOCTYPE svg PUBLIC "-//W3C//DTD SVG 1.0//EN"
  "http://www.w3.org/TR/SVG/DTD/svg10.dtd">
<svg xmlns="http://www.w3.org/2000/svg" version="1.2" baseProfile="tiny"
     width="1012px" height="561px" viewport-fill="#ffffff" >
<desc>
Created with Chemtool 1.6.12 from file /home/mauro/bifi/thesis/src/img/msms/amino.svg 
</desc>
<g>
<line x1="303" y1="402" x2="258" y2="428"
style="stroke-width:2; stroke:#000000" />
<line x1="303" y1="402" x2="358" y2="434"
style="stroke-width:2; stroke:#000000" />
<line x1="354" y1="434" x2="354" y2="484"
style="stroke-width:2; stroke:#000000" />
<line x1="362" y1="434" x2="362" y2="484"
style="stroke-width:2; stroke:#000000" />
<line x1="358" y1="434" x2="402" y2="407"
style="stroke-width:2; stroke:#000000" />
<line x1="423" y1="407" x2="468" y2="434"
style="stroke-width:2; stroke:#000000" />
<line x1="468" y1="434" x2="522" y2="402"
style="stroke-width:2; stroke:#000000" />
<line x1="526" y1="402" x2="526" y2="350"
style="stroke-width:2; stroke:#000000" />
<line x1="518" y1="402" x2="518" y2="350"
style="stroke-width:2; stroke:#000000" />
<line x1="522" y1="402" x2="575" y2="433"
style="stroke-width:2; stroke:#000000" />
<line x1="632" y1="406" x2="587" y2="432"
style="stroke-width:2; stroke:#000000" />
<line x1="632" y1="406" x2="687" y2="438"
style="stroke-width:2; stroke:#000000" />
<line x1="683" y1="438" x2="683" y2="488"
style="stroke-width:2; stroke:#000000" />
<line x1="691" y1="438" x2="691" y2="488"
style="stroke-width:2; stroke:#000000" />
<line x1="687" y1="438" x2="731" y2="411"
style="stroke-width:2; stroke:#000000" />
<line x1="752" y1="411" x2="797" y2="438"
style="stroke-width:2; stroke:#000000" />
<line x1="797" y1="438" x2="851" y2="406"
style="stroke-width:2; stroke:#000000" />
<line x1="855" y1="406" x2="855" y2="354"
style="stroke-width:2; stroke:#000000" />
<line x1="847" y1="406" x2="847" y2="354"
style="stroke-width:2; stroke:#000000" />
<line x1="851" y1="406" x2="894" y2="432"
style="stroke-width:2; stroke:#000000" />
<line x1="303" y1="402" x2="303" y2="350"
style="stroke-width:2; stroke:#000000" />
<line x1="468" y1="434" x2="468" y2="485"
style="stroke-width:2; stroke:#000000" />
<line x1="632" y1="406" x2="632" y2="354"
style="stroke-width:2; stroke:#000000" />
<line x1="797" y1="438" x2="797" y2="489"
style="stroke-width:2; stroke:#000000" />
<text x="246" y="442" style="font-family:Helvetica; font-size:18pt; fill:#000000;text-anchor:middle;" > 
<tspan>
N</tspan>
</text>
<text x="356" y="505" style="font-family:Helvetica; font-size:18pt; fill:#000000;text-anchor:middle;" > 
<tspan>
O</tspan>
</text>
<text x="411" y="410" style="font-family:Helvetica; font-size:18pt; fill:#000000;text-anchor:middle;" > 
<tspan>
N</tspan>
</text>
<text x="520" y="346" style="font-family:Helvetica; font-size:18pt; fill:#000000;text-anchor:middle;" > 
<tspan>
O</tspan>
</text>
<text x="575" y="446" style="font-family:Helvetica; font-size:18pt; fill:#000000;text-anchor:middle;" > 
<tspan>
N</tspan>
</text>
<text x="685" y="509" style="font-family:Helvetica; font-size:18pt; fill:#000000;text-anchor:middle;" > 
<tspan>
O</tspan>
</text>
<text x="740" y="414" style="font-family:Helvetica; font-size:18pt; fill:#000000;text-anchor:middle;" > 
<tspan>
N</tspan>
</text>
<text x="849" y="350" style="font-family:Helvetica; font-size:18pt; fill:#000000;text-anchor:middle;" > 
<tspan>
O</tspan>
</text>
<text x="897" y="446" style="font-family:Times; font-size:18pt; fill:#000000;text-anchor:start;" > 
<tspan>
OH</tspan>
</text>
<text x="295" y="346" style="font-family:Times; font-size:18pt; fill:#000000;text-anchor:start;" > 
<tspan>
R</tspan>
<tspan dy="8" style="font-size:14pt;">1</tspan>
<tspan dy="-8">
</tspan>
</text>
<text x="460" y="506" style="font-family:Times; font-size:18pt; fill:#000000;text-anchor:start;" > 
<tspan>
R</tspan>
<tspan dy="8" style="font-size:14pt;">2</tspan>
<tspan dy="-8">
</tspan>
</text>
<text x="624" y="350" style="font-family:Times; font-size:18pt; fill:#000000;text-anchor:start;" > 
<tspan>
R</tspan>
<tspan dy="8" style="font-size:14pt;">3</tspan>
<tspan dy="-8">
</tspan>
</text>
<text x="789" y="510" style="font-family:Times; font-size:18pt; fill:#000000;text-anchor:start;" > 
<tspan>
R</tspan>
<tspan dy="8" style="font-size:14pt;">4</tspan>
<tspan dy="-8">
</tspan>
</text>
</g>
</svg>
