<?xml version="1.0" encoding="UTF-8" standalone="no"?>
<!-- Created with Inkscape (http://www.inkscape.org/) -->
<svg
   xmlns:dc="http://purl.org/dc/elements/1.1/"
   xmlns:cc="http://creativecommons.org/ns#"
   xmlns:rdf="http://www.w3.org/1999/02/22-rdf-syntax-ns#"
   xmlns:svg="http://www.w3.org/2000/svg"
   xmlns="http://www.w3.org/2000/svg"
   xmlns:sodipodi="http://sodipodi.sourceforge.net/DTD/sodipodi-0.dtd"
   xmlns:inkscape="http://www.inkscape.org/namespaces/inkscape"
   id="svg2403"
   sodipodi:version="0.32"
   inkscape:version="0.46"
   width="224.28"
   height="187.21001"
   xml:space="preserve"
   sodipodi:docname="logosintexto_vectorial.svg"
   version="1.0"
   inkscape:output_extension="org.inkscape.output.svg.inkscape"
   inkscape:export-filename="/home/guillermo/Desktop/LOGO_BIFI/entregado/web/logosintexto_vectorial_XS.png"
   inkscape:export-xdpi="40.130001"
   inkscape:export-ydpi="40.130001"><metadata
     id="metadata2408"><rdf:RDF><cc:Work
         rdf:about=""><dc:format>image/svg+xml</dc:format><dc:type
           rdf:resource="http://purl.org/dc/dcmitype/StillImage" /></cc:Work></rdf:RDF></metadata><defs
     id="defs2406"><inkscape:perspective
       sodipodi:type="inkscape:persp3d"
       inkscape:vp_x="0 : 526.18109 : 1"
       inkscape:vp_y="0 : 1000 : 0"
       inkscape:vp_z="744.09448 : 526.18109 : 1"
       inkscape:persp3d-origin="372.04724 : 350.78739 : 1"
       id="perspective2410" /><linearGradient
       x1="0"
       y1="0"
       x2="1"
       y2="0"
       gradientUnits="userSpaceOnUse"
       gradientTransform="matrix(-43.206085,118.70778,118.70778,43.206101,226.73047,241.61816)"
       spreadMethod="pad"
       id="linearGradient2428"><stop
         style="stop-opacity:1;stop-color:#fedd03"
         offset="0"
         id="stop2430" /><stop
         style="stop-opacity:1;stop-color:#07699a"
         offset="1"
         id="stop2432" /></linearGradient><linearGradient
       x1="0"
       y1="0"
       x2="1"
       y2="0"
       gradientUnits="userSpaceOnUse"
       gradientTransform="matrix(63.379898,109.77721,109.77721,-63.379898,168.2124,239.69727)"
       spreadMethod="pad"
       id="linearGradient2448"><stop
         style="stop-opacity:1;stop-color:#d3181f"
         offset="0"
         id="stop2450" /><stop
         style="stop-opacity:1;stop-color:#fedd03"
         offset="1"
         id="stop2452" /></linearGradient><clipPath
       clipPathUnits="userSpaceOnUse"
       id="clipPath2460"><path
         d="M 0,595.28 L 841.89,595.28 L 841.89,0 L 0,0 L 0,595.28 z"
         id="path2462" /></clipPath></defs><sodipodi:namedview
     inkscape:window-height="962"
     inkscape:window-width="1280"
     inkscape:pageshadow="2"
     inkscape:pageopacity="0.0"
     guidetolerance="10.0"
     gridtolerance="10.0"
     objecttolerance="10.0"
     borderopacity="1.0"
     bordercolor="#666666"
     pagecolor="#ffffff"
     id="base"
     showgrid="false"
     height="744.09px"
     inkscape:zoom="1.4364076"
     inkscape:cx="223.42646"
     inkscape:cy="115.28"
     inkscape:window-x="0"
     inkscape:window-y="0"
     inkscape:current-layer="g2458" /><g
     id="g2412"
     inkscape:groupmode="layer"
     inkscape:label="logo_vectorial"
     transform="matrix(1.25,0,0,-1.25,-150.06,442.82)"><g
       id="g2416"
       transform="translate(20.8,-20.8)"><g
         id="g2418"><g
           id="g2424"><g
             id="g2426"><path
               d="M 217.026,371.856 C 211.342,371.856 206.734,367.249 206.734,361.564 L 206.734,361.564 L 206.734,315.824 C 206.734,315.824 206.728,315.165 206.728,314.824 L 206.728,314.824 C 206.728,306.127 199.79,299.296 191.093,299.296 L 191.093,299.296 C 190.325,299.296 188.849,299.305 188.849,299.305 L 188.849,299.305 L 146.674,299.305 C 140.99,299.305 136.382,294.695 136.382,289.011 L 136.382,289.011 L 136.382,240.379 C 136.382,234.694 140.99,230.088 146.674,230.088 L 146.674,230.088 L 193.227,230.088 C 198.913,230.088 203.521,234.694 203.521,240.379 L 203.521,240.379 L 203.521,285.889 C 203.507,286.127 203.449,286.35 203.449,286.596 L 203.449,286.596 C 203.449,295.293 210.496,302.249 219.193,302.249 L 219.193,302.249 C 219.577,302.249 220.315,302.228 220.315,302.228 L 220.315,302.228 L 264.29,302.228 C 269.639,302.598 273.874,307.008 273.874,312.449 L 273.874,312.449 L 273.874,361.564 C 273.874,367.249 269.265,371.856 263.58,371.856 L 263.58,371.856 L 217.026,371.856 z"
               style="fill:url(#linearGradient2428);stroke:none"
               id="path2434" /></g></g></g></g><g
       id="g2436"
       transform="translate(20.8,-20.8)"><g
         id="g2438"><g
           id="g2444"><g
             id="g2446"><path
               d="M 143.202,371.856 C 137.522,371.856 132.992,367.253 132.992,361.574 L 132.992,361.574 L 132.992,318.073 C 132.992,309.385 133.107,307.607 130.592,305.091 L 130.592,305.091 C 128.811,303.31 124.612,303.345 124.476,303.36 L 124.476,303.36 L 106.66,303.36 C 104.333,303.36 102.448,301.475 102.448,299.148 L 102.448,299.148 L 102.448,280.098 C 102.448,277.772 104.333,275.888 106.66,275.888 L 106.66,275.888 L 125.856,275.888 C 128.083,275.888 129.888,277.62 130.039,279.81 L 130.039,279.81 L 130.039,296.78 C 130.039,302.28 136.814,305.658 142.046,305.658 L 142.046,305.658 L 190.069,305.658 C 195.748,305.658 200.351,310.262 200.351,315.94 L 200.351,315.94 L 200.351,361.574 C 200.351,367.253 195.748,371.856 190.069,371.856 L 190.069,371.856 L 143.202,371.856 z M 219.458,295.851 C 214.226,295.851 209.986,291.609 209.986,286.378 L 209.986,286.378 L 209.986,239.581 C 209.986,234.354 214.226,230.113 219.458,230.113 L 219.458,230.113 L 264.404,230.113 C 269.634,230.113 273.874,234.354 273.874,239.581 L 273.874,239.581 L 273.874,286.378 C 273.874,291.609 269.634,295.851 264.404,295.851 L 264.404,295.851 L 219.458,295.851 z"
               style="fill:url(#linearGradient2448);stroke:none"
               id="path2454" /></g></g></g></g><g
       id="g2456"
       transform="translate(17.6,-17.6)"><g
         id="g2458"
         clip-path="url(#clipPath2460)"><g
           id="g2464"
           transform="translate(161.1663,325.3674)"><path
             d="M 0,0 C -0.048,-1.056 0.09,-1.903 0.408,-2.537 C 0.681,-3.193 1.215,-3.887 2.011,-4.612 L 5.862,-7.997 C 6.272,-8.395 6.737,-8.759 7.259,-9.089 C 7.669,-9.512 8.055,-9.722 8.419,-9.722 L 13.53,-9.722 C 14.462,-9.722 15.156,-9.512 15.611,-9.089 L 18.541,-6.552 C 18.973,-6.177 19.233,-5.625 19.325,-4.896 C 19.371,-4.239 19.395,-3.569 19.395,-2.888 L 19.395,9.372 C 19.395,10.828 19.086,11.792 18.473,12.26 L 15.405,14.726 C 15.043,15.103 14.507,15.29 13.803,15.29 L 9.134,15.29 C 8.157,15.244 7.225,14.833 6.34,14.059 L 2.011,10.183 C 1.443,9.736 0.977,9.207 0.614,8.597 C 0.204,7.961 0,7.117 0,6.06 L 0,0 z M 0,17.142 L 1.159,18.364 C 2.225,19.551 3.248,20.484 4.224,21.157 C 5.156,21.832 6.349,22.171 7.803,22.171 L 15.197,22.171 C 16.084,22.171 16.945,21.947 17.788,21.502 C 18.537,21.082 19.321,20.485 20.138,19.713 L 22.456,17.71 C 23.747,16.61 24.7,15.462 25.312,14.268 C 25.809,13.051 26.06,11.541 26.06,9.738 L 26.06,-4.168 C 26.06,-5.88 25.809,-7.342 25.311,-8.56 C 24.698,-9.802 23.743,-10.995 22.45,-12.141 L 20.134,-14.143 C 18.429,-15.738 16.69,-16.556 14.919,-16.603 L 8.005,-16.603 C 6.71,-16.603 5.553,-16.218 4.531,-15.451 C 3.509,-14.799 2.509,-14.018 1.532,-13.111 L 0,-11.609 L 0,-12.028 C 0,-13.167 -0.215,-14.192 -0.643,-15.101 C -1.14,-16.056 -2.041,-16.558 -3.35,-16.603 C -4.681,-16.603 -5.583,-16.077 -6.058,-15.022 C -6.511,-14.063 -6.713,-12.985 -6.665,-11.791 L -6.665,31.655 C -6.713,32.939 -6.511,34.041 -6.058,34.955 C -5.583,35.869 -4.681,36.346 -3.35,36.394 C -1.908,36.346 -0.982,35.869 -0.575,34.956 C -0.191,34.044 0,32.945 0,31.661 L 0,17.142 z"
             style="fill:#ffffff;fill-opacity:1;fill-rule:nonzero;stroke:none"
             id="path2466" /></g><g
           id="g2468"
           transform="translate(238.7435,359.3459)"><path
             d="M 0,0 C 0.046,2.201 1.091,3.277 3.134,3.231 L 6.949,3.231 C 7.88,3.231 8.652,3.021 9.265,2.6 C 9.832,2.106 10.115,1.241 10.115,0 L 10.115,-3.3 C 10.025,-5.548 8.97,-6.624 6.949,-6.53 L 3.134,-6.53 C 2.205,-6.53 1.453,-6.296 0.887,-5.827 C 0.297,-5.336 0,-4.494 0,-3.3 L 0,0 z M 10.115,-45.836 L 15.135,-45.836 C 16.296,-45.836 17.368,-46.034 18.346,-46.43 C 19.235,-46.85 19.702,-47.804 19.747,-49.295 C 19.702,-50.761 19.188,-51.693 18.216,-52.088 C 17.241,-52.507 16.219,-52.716 15.153,-52.716 L -1.857,-52.716 C -2.879,-52.716 -3.875,-52.507 -4.851,-52.088 C -5.872,-51.693 -6.406,-50.761 -6.451,-49.295 C -6.451,-47.804 -5.942,-46.85 -4.92,-46.43 C -4.035,-46.034 -3.014,-45.836 -1.857,-45.836 L 3.451,-45.836 L 3.451,-20.825 L -1.857,-20.825 C -2.879,-20.872 -3.875,-20.65 -4.851,-20.161 C -5.872,-19.788 -6.406,-18.869 -6.451,-17.402 C -6.451,-15.912 -5.942,-14.957 -4.92,-14.537 C -4.038,-14.143 -3.018,-13.943 -1.862,-13.943 L 5.174,-13.943 C 7.071,-13.943 8.391,-14.211 9.135,-14.747 C 9.791,-15.397 10.115,-16.726 10.115,-18.729 L 10.115,-45.836 z"
             style="fill:#ffffff;fill-opacity:1;fill-rule:nonzero;stroke:none"
             id="path2470" /></g><g
           id="g2472"
           transform="translate(164.2298,265.1916)"><path
             d="M 0,0 L -1.904,0 C -2.927,-0.048 -3.923,0.175 -4.896,0.664 C -5.917,1.037 -6.452,1.956 -6.497,3.421 C -6.497,4.913 -5.986,5.866 -4.966,6.286 C -4.081,6.681 -3.062,6.881 -1.904,6.881 L 0,6.881 L 0,7.795 C -0.047,9.808 0.134,11.586 0.546,13.134 C 0.77,13.951 1.099,14.749 1.531,15.521 C 1.938,16.225 2.496,16.936 3.199,17.662 C 4.787,19.206 6.408,20.188 8.064,20.61 C 9.698,20.938 11.513,21.102 13.508,21.102 L 18.036,21.102 C 19.283,21.149 20.395,21.007 21.37,20.68 C 22.344,20.259 22.855,19.253 22.9,17.662 C 22.855,16.282 22.401,15.348 21.541,14.857 C 20.654,14.388 19.576,14.176 18.307,14.225 L 13.099,14.225 C 10.853,14.27 9.219,13.907 8.196,13.135 C 7.176,12.315 6.666,10.687 6.666,8.251 L 6.666,6.881 L 12.589,6.881 C 13.769,6.881 14.846,6.681 15.823,6.286 C 16.707,5.866 17.173,4.913 17.216,3.421 C 17.173,1.956 16.65,1.037 15.652,0.664 C 14.676,0.175 13.654,-0.048 12.589,0 L 6.666,0 L 6.666,-27.146 C 6.666,-28.342 6.484,-29.397 6.123,-30.312 C 5.714,-31.367 4.784,-31.891 3.334,-31.891 C 1.996,-31.891 1.089,-31.37 0.611,-30.32 C 0.157,-29.416 -0.047,-28.369 0,-27.182 L 0,0 z"
             style="fill:#ffffff;fill-opacity:1;fill-rule:nonzero;stroke:none"
             id="path2474" /></g><g
           id="g2476"
           transform="translate(240.2059,284.5441)"><path
             d="M 0,0 C 0.046,2.2 1.09,3.279 3.135,3.229 L 6.95,3.229 C 7.881,3.229 8.651,3.021 9.264,2.602 C 9.831,2.107 10.117,1.239 10.117,0 L 10.117,-3.3 C 10.023,-5.547 8.97,-6.622 6.95,-6.531 L 3.135,-6.531 C 2.203,-6.531 1.453,-6.299 0.887,-5.828 C 0.296,-5.336 0,-4.492 0,-3.3 L 0,0 z M 10.117,-45.838 L 15.136,-45.838 C 16.297,-45.838 17.37,-46.034 18.348,-46.431 C 19.233,-46.851 19.701,-47.804 19.746,-49.295 C 19.701,-50.762 19.193,-51.692 18.216,-52.087 C 17.241,-52.507 16.219,-52.715 15.154,-52.715 L -1.857,-52.715 C -2.88,-52.715 -3.876,-52.507 -4.852,-52.087 C -5.873,-51.692 -6.406,-50.762 -6.452,-49.295 C -6.452,-47.804 -5.942,-46.851 -4.921,-46.431 C -4.035,-46.034 -3.015,-45.838 -1.857,-45.838 L 3.45,-45.838 L 3.45,-20.823 L -1.857,-20.823 C -2.88,-20.873 -3.876,-20.65 -4.852,-20.16 C -5.873,-19.786 -6.406,-18.868 -6.452,-17.4 C -6.452,-15.912 -5.942,-14.956 -4.922,-14.536 C -4.04,-14.142 -3.017,-13.943 -1.862,-13.943 L 5.176,-13.943 C 7.07,-13.943 8.391,-14.211 9.135,-14.747 C 9.791,-15.398 10.117,-16.725 10.117,-18.728 L 10.117,-45.838 z"
             style="fill:#ffffff;fill-opacity:1;fill-rule:nonzero;stroke:none"
             id="path2478" /></g></g></g></g></svg>