<?xml version="1.0" encoding="UTF-8" standalone="no"?>
<!-- Generator: Adobe Illustrator 15.0.0, SVG Export Plug-In . SVG Version: 6.00 Build 0)  -->
<svg
   xmlns:dc="http://purl.org/dc/elements/1.1/"
   xmlns:cc="http://creativecommons.org/ns#"
   xmlns:rdf="http://www.w3.org/1999/02/22-rdf-syntax-ns#"
   xmlns:svg="http://www.w3.org/2000/svg"
   xmlns="http://www.w3.org/2000/svg"
   xmlns:sodipodi="http://sodipodi.sourceforge.net/DTD/sodipodi-0.dtd"
   xmlns:inkscape="http://www.inkscape.org/namespaces/inkscape"
   version="1.0"
   x="0px"
   y="0px"
   width="841.89001"
   height="215"
   viewBox="0 0 841.89 595.28"
   enable-background="new 0 0 841.89 595.28"
   xml:space="preserve"
   id="svg2"
   sodipodi:version="0.32"
   inkscape:version="0.46"
   sodipodi:docname="logoBN_vectorial.svg"
   inkscape:output_extension="org.inkscape.output.svg.inkscape"
   inkscape:export-filename="/home/guillermo/Desktop/sub/logoBN_XL.png"
   inkscape:export-xdpi="171.2093"
   inkscape:export-ydpi="171.2093"><metadata
   id="metadata228"><rdf:RDF><cc:Work
       rdf:about=""><dc:format>image/svg+xml</dc:format><dc:type
         rdf:resource="http://purl.org/dc/dcmitype/StillImage" /></cc:Work></rdf:RDF></metadata><defs
   id="defs226"><inkscape:perspective
   sodipodi:type="inkscape:persp3d"
   inkscape:vp_x="0 : 297.64001 : 1"
   inkscape:vp_y="0 : 1000 : 0"
   inkscape:vp_z="841.89001 : 297.64001 : 1"
   inkscape:persp3d-origin="420.94501 : 198.42668 : 1"
   id="perspective230" />
	

		
		
		
		
		
		
		
		
		
		
		
	</defs><sodipodi:namedview
   inkscape:window-height="962"
   inkscape:window-width="1280"
   inkscape:pageshadow="2"
   inkscape:pageopacity="0.0"
   guidetolerance="10.0"
   gridtolerance="10.0"
   objecttolerance="10.0"
   borderopacity="1.0"
   bordercolor="#666666"
   pagecolor="#ffffff"
   id="base"
   showgrid="false"
   inkscape:zoom="1.2817497"
   inkscape:cx="423.18444"
   inkscape:cy="4.4568417"
   inkscape:window-x="0"
   inkscape:window-y="0"
   inkscape:current-layer="svg2" />
<path
   clip-rule="evenodd"
   d="M -346.07733,500.96554 L -346.07733,335.70024 C -346.12454,334.83597 -346.3388,334.02255 -346.3388,333.13285 C -346.3388,301.55051 -320.74465,276.29045 -289.16231,276.29045 C -287.76784,276.29045 -285.08423,276.3667 -285.08423,276.3667 L -125.39682,276.3667 C -105.9724,275.02669 -90.593424,259.00859 -90.593424,239.2501 L -90.593424,60.893574 C -90.593424,40.24905 -107.33054,23.519162 -127.97146,23.519162 L -297.03155,23.519162 C -317.67249,23.519162 -334.40601,40.24905 -334.40601,60.893574 L -334.40601,226.99411 C -334.40601,226.99411 -334.42779,229.39082 -334.42779,230.62912 C -334.42779,262.21147 -359.62248,287.01399 -391.20483,287.01399 C -393.99737,287.01399 -399.35735,286.98132 -399.35735,286.98132 L -552.50823,286.98132 C -573.15278,286.98132 -589.88629,303.71845 -589.88629,324.36299 L -589.88629,500.96554 C -589.88629,521.61006 -573.15278,538.3363 -552.50823,538.3363 L -383.4554,538.3363 C -362.81086,538.3363 -346.07733,521.61006 -346.07733,500.96554 z"
   id="path9"
   style="fill:#9b9c9e;fill-rule:evenodd" /><g
   id="g11"
   transform="matrix(3.6314058,0,0,3.6314058,-1085.1446,-787.82403)">
			<path
   d="M 264.404,299.43 L 219.458,299.43 C 214.227,299.43 209.987,303.671 209.987,308.903 L 209.987,355.7 C 209.987,360.928 214.227,365.168 219.458,365.168 L 264.404,365.168 C 269.633,365.168 273.874,360.928 273.874,355.7 L 273.874,308.903 C 273.874,303.671 269.633,299.43 264.404,299.43 z M 190.069,223.425 L 143.202,223.425 C 137.522,223.425 132.993,228.027 132.993,233.707 L 132.993,274.965 L 132.993,277.208 C 132.993,285.896 133.108,287.673 130.593,290.189 C 128.812,291.971 124.613,291.935 124.477,291.92 L 106.66,291.92 C 104.333,291.92 102.448,293.805 102.448,296.132 L 102.448,315.182 C 102.448,317.507 104.333,319.392 106.66,319.392 L 125.856,319.392 C 128.083,319.392 129.888,317.66 130.039,315.47 L 130.039,298.5 C 130.039,293 136.814,289.622 142.045,289.622 L 148.857,289.622 L 190.068,289.622 C 195.747,289.622 200.35,285.018 200.35,279.339 L 200.35,233.706 C 200.351,228.027 195.748,223.425 190.069,223.425 z"
   id="path13" />
		</g><path
   d="M -511.50601,118.46954 L -507.29719,114.02833 C -503.42614,109.71784 -499.71123,106.32975 -496.16695,103.8858 C -492.78249,101.43461 -488.45022,100.20356 -483.17016,100.20356 L -456.31956,100.20356 C -453.09851,100.20356 -449.97184,101.01699 -446.91423,102.63296 C -444.19065,104.16179 -441.34727,106.32611 -438.38042,109.12957 L -429.96281,116.40327 C -425.27103,120.40145 -421.8103,124.56668 -419.5915,128.90256 C -417.78307,133.32199 -416.87161,138.80906 -416.87161,145.35285 L -416.87161,195.85118 C -416.87161,202.0645 -417.78307,207.37727 -419.5915,211.8003 C -421.81757,216.3105 -425.28556,220.64277 -429.98096,224.80437 L -438.39131,232.07444 C -444.58285,237.86654 -450.89786,240.83703 -457.32545,241.00407 L -482.4366,241.00407 C -487.13565,241.00407 -491.34083,239.60597 -495.05213,236.82432 C -498.76342,234.45665 -502.3948,231.6169 -505.9427,228.32684 L -511.50601,222.87244 L -511.50601,224.39404 C -511.50601,228.53382 -512.28675,232.256 -513.84102,235.55333 C -515.64944,239.02132 -518.91772,240.8443 -523.67485,241.00407 C -528.50826,241.00407 -531.78378,239.09393 -533.50871,235.26644 C -535.15375,231.78393 -535.88728,227.86566 -535.71296,223.52974 L -535.71296,65.763303 C -535.88728,61.100578 -535.15375,57.098772 -533.50871,53.779668 C -531.78378,50.460566 -528.50826,48.728377 -523.67485,48.554077 C -518.43837,48.728377 -515.0757,50.460566 -513.59772,53.776031 C -512.20324,57.087869 -511.50964,61.078789 -511.50964,65.741512 L -511.50964,118.46954 L -511.50601,118.46954 z M -511.50601,180.71909 C -511.68032,184.55386 -511.17918,187.62968 -510.0244,189.93197 C -509.03302,192.31419 -507.09388,194.83438 -504.20326,197.47078 L -490.21506,209.76308 C -488.72621,211.20838 -487.03759,212.53022 -485.14201,213.72858 C -483.6531,215.26466 -482.25142,216.02726 -480.92958,216.02726 L -462.36945,216.02726 C -458.985,216.02726 -456.46844,215.26466 -454.81254,213.72858 L -444.1725,204.51208 C -442.60011,203.15028 -441.65593,201.14576 -441.32185,198.49847 C -441.15843,196.11262 -441.07129,193.67958 -441.07129,191.20659 L -441.07129,146.68556 C -441.07129,141.39822 -442.18976,137.9012 -444.41579,136.19809 L -455.55695,127.24301 C -456.8679,125.87761 -458.81433,125.19491 -461.37447,125.19491 L -478.32948,125.19491 C -481.88101,125.36195 -485.26187,126.85809 -488.47565,129.66517 L -504.19961,143.73685 C -506.25862,145.3601 -507.95449,147.28474 -509.27272,149.49628 C -510.76159,151.80223 -511.50238,154.87076 -511.50238,158.70915 L -511.50238,180.71909 L -511.50601,180.71909 z"
   id="path15"
   style="fill:#ffffff" /><path
   d="M -193.06076,223.78031 L -174.82749,223.78031 C -170.61144,223.78031 -166.72219,224.49934 -163.16706,225.93374 C -159.93873,227.45894 -158.2465,230.92328 -158.07946,236.3377 C -158.24288,241.66136 -160.10943,245.04583 -163.63912,246.48023 C -167.17974,248.00178 -170.89106,248.75714 -174.76213,248.75714 L -236.53596,248.75714 C -240.24364,248.75714 -243.86416,248.00178 -247.40839,246.48023 C -251.11605,245.04583 -253.05526,241.66136 -253.21865,236.3377 C -253.21865,230.92328 -251.37027,227.45894 -247.65896,225.93374 C -244.44519,224.49571 -240.73389,223.78031 -236.53596,223.78031 L -217.26047,223.78031 L -217.26047,132.95158 L -236.53596,132.95158 C -240.24364,133.12226 -243.86416,132.31971 -247.40839,130.54033 C -251.11605,129.18582 -253.05526,125.84856 -253.21865,120.52127 C -253.21865,115.11049 -251.37027,111.64249 -247.65896,110.1173 C -244.45606,108.68652 -240.74838,107.96389 -236.55051,107.96389 L -210.99993,107.96389 C -204.11117,107.96389 -199.31771,108.9371 -196.61591,110.87989 C -194.23372,113.24393 -193.05714,118.06646 -193.05714,125.34017 L -193.05714,223.78031 L -193.06076,223.78031 z M -229.79245,57.327552 C -229.62541,49.334827 -225.8306,45.427438 -218.41163,45.594477 L -204.5578,45.594477 C -201.17695,45.594477 -198.37351,46.357077 -196.14748,47.885884 C -194.08848,49.679816 -193.06076,52.820967 -193.06076,57.327552 L -193.06076,69.311186 C -193.38759,77.474574 -197.21874,81.381975 -204.5578,81.040623 L -218.41163,81.040623 C -221.7852,81.040623 -224.51603,80.19088 -226.57142,78.487743 C -228.71394,76.704727 -229.79245,73.647082 -229.79245,69.311186 L -229.79245,57.327552 L -229.79245,57.327552 z"
   id="path17"
   style="fill:#ffffff" /><path
   d="M -500.37939,399.24255 L -507.29357,399.24255 C -511.00851,399.41687 -514.6254,398.6071 -518.15875,396.83131 C -521.86642,395.47683 -523.80921,392.13955 -523.97264,386.81955 C -523.97264,381.40146 -522.12061,377.94074 -518.41292,376.41554 C -515.19916,374.98115 -511.49875,374.25486 -507.29357,374.25486 L -500.37939,374.25486 L -500.37939,370.93575 C -500.55004,363.62576 -499.89279,357.16913 -498.39665,351.54768 C -497.58683,348.58085 -496.38847,345.68298 -494.81972,342.87591 C -493.34173,340.32302 -491.31902,337.74108 -488.76614,335.10106 C -482.99947,329.49418 -477.11298,325.93176 -471.09575,324.39567 C -465.16565,323.20821 -458.57467,322.61268 -451.32637,322.61268 L -434.88337,322.61268 C -430.35499,322.43835 -426.3205,322.95764 -422.77988,324.14511 C -419.24289,325.67394 -417.38725,329.32712 -417.2202,335.10472 C -417.3836,340.11604 -419.03227,343.50778 -422.15892,345.29078 C -425.37999,346.99756 -429.29462,347.76739 -433.90287,347.58947 L -452.81522,347.58947 C -460.97137,347.42605 -466.90508,348.74062 -470.62002,351.54768 C -474.32405,354.52185 -476.17971,360.43737 -476.17971,369.28346 L -476.17971,374.25852 L -454.66726,374.25852 C -450.38584,374.25852 -446.4748,374.98476 -442.92332,376.41917 C -439.71678,377.9444 -438.02091,381.40507 -437.86473,386.82317 C -438.02091,392.14317 -439.9165,395.48044 -443.54426,396.83494 C -447.08855,398.61071 -450.79982,399.42048 -454.66726,399.24619 L -476.17971,399.24619 L -476.17971,497.82435 C -476.17971,502.16387 -476.84059,505.99864 -478.15156,509.31777 C -479.6368,513.15249 -483.0104,515.05174 -488.27954,515.05174 C -493.13837,515.05174 -496.43204,513.15978 -498.16785,509.35041 C -499.81651,506.06764 -500.55733,502.26556 -500.38666,497.95146 L -500.38666,399.24255 L -500.37939,399.24255 z"
   id="path19"
   style="fill:#ffffff" /><path
   d="M -187.74077,495.42036 L -169.51475,495.42036 C -165.29868,495.42036 -161.40582,496.1321 -157.85431,497.57377 C -154.64053,499.09897 -152.93738,502.5597 -152.7776,507.97413 C -152.94102,513.3014 -154.78577,516.6786 -158.33366,518.113 C -161.87427,519.63819 -165.58557,520.39353 -169.45301,520.39353 L -231.23049,520.39353 C -234.9418,520.39353 -238.5623,519.63819 -242.10655,518.113 C -245.81422,516.6786 -247.74975,513.3014 -247.91681,507.97413 C -247.91681,502.5597 -246.06476,499.09897 -242.3571,497.57377 C -239.13968,496.13574 -235.43564,495.42036 -231.23413,495.42036 L -211.96227,495.42036 L -211.96227,404.58072 L -231.23413,404.58072 C -234.9454,404.76232 -238.56593,403.9525 -242.11019,402.17311 C -245.81785,400.81497 -247.75337,397.48134 -247.92042,392.15043 C -247.92042,386.7469 -246.06841,383.27528 -242.36801,381.75009 C -239.16148,380.31568 -235.45017,379.59667 -231.25592,379.59667 L -205.69446,379.59667 C -198.81656,379.59667 -194.01949,380.56989 -191.32134,382.5163 C -188.93913,384.88036 -187.75532,389.69922 -187.75532,396.9693 L -187.75532,495.42036 L -187.74077,495.42036 z M -224.4797,328.964 C -224.31267,320.9749 -220.52146,317.05661 -213.09526,317.23816 L -199.24142,317.23816 C -195.86058,317.23816 -193.0644,317.99715 -190.83837,319.5187 C -188.77934,321.31262 -187.74077,324.46468 -187.74077,328.96762 L -187.74077,340.95124 C -188.08212,349.11103 -191.90597,353.01479 -199.24142,352.68432 L -213.09526,352.68432 C -216.47973,352.68432 -219.20689,351.84184 -221.26228,350.13145 C -223.40481,348.3448 -224.48334,345.2799 -224.48334,340.95124 L -224.48334,328.964 L -224.4797,328.964 z"
   id="path21"
   style="fill:#ffffff" /><g
   id="g23"
   transform="matrix(3.6314058,0,0,3.6314058,-1085.1446,-787.82403)">
			<rect
   x="297.496"
   y="223.433"
   width="3.7420001"
   height="16.503"
   id="rect25" />
			<path
   d="M 304.394,231.783 C 304.394,230.291 304.349,229.041 304.301,227.965 L 307.54,227.965 L 307.705,229.625 L 307.781,229.625 C 308.282,228.848 309.49,227.695 311.471,227.695 C 313.933,227.695 315.764,229.331 315.764,232.863 L 315.764,239.934 L 312.03,239.934 L 312.03,233.298 C 312.03,231.757 311.5,230.711 310.158,230.711 C 309.125,230.711 308.511,231.408 308.242,232.106 C 308.141,232.347 308.134,232.687 308.134,233.036 L 308.134,239.935 L 304.394,239.935 L 304.394,231.783 z"
   id="path27" />
			<path
   d="M 318.691,236.71 C 319.381,237.118 320.79,237.58 321.902,237.58 C 323.027,237.58 323.49,237.214 323.49,236.602 C 323.49,235.966 323.119,235.677 321.755,235.215 C 319.245,234.384 318.301,233.036 318.32,231.61 C 318.32,229.359 320.232,227.668 323.189,227.668 C 324.594,227.668 325.81,228.019 326.552,228.378 L 325.922,230.956 C 325.379,230.659 324.327,230.269 323.313,230.269 C 322.412,230.269 321.901,230.63 321.901,231.224 C 321.901,231.812 322.372,232.105 323.824,232.614 C 326.111,233.409 327.039,234.575 327.063,236.316 C 327.063,238.568 325.332,240.21 321.901,240.21 C 320.325,240.21 318.923,239.842 318.031,239.353 L 318.691,236.71 z"
   id="path29" />
			<path
   d="M 333.492,224.731 L 333.492,227.961 L 336.159,227.961 L 336.159,230.712 L 333.492,230.712 L 333.492,235.039 C 333.492,236.48 333.865,237.143 334.954,237.143 C 335.463,237.143 335.705,237.118 336.066,237.044 L 336.072,239.859 C 335.611,240.027 334.71,240.182 333.687,240.182 C 332.474,240.182 331.487,239.758 330.879,239.154 C 330.182,238.444 329.837,237.29 329.837,235.602 L 329.837,230.711 L 328.247,230.711 L 328.247,227.96 L 329.837,227.96 L 329.837,225.735 L 333.492,224.731 z"
   id="path31" />
			<path
   d="M 342.132,224.625 C 342.132,225.664 341.384,226.495 340.126,226.495 C 338.96,226.495 338.195,225.663 338.195,224.625 C 338.195,223.58 338.969,222.768 340.172,222.768 C 341.384,222.768 342.104,223.58 342.132,224.625 M 338.298,227.962 L 342.011,227.962 L 342.011,239.932 L 338.298,239.932 L 338.298,227.962 z"
   id="path33" />
			<path
   d="M 349.15,224.731 L 349.15,227.961 L 351.809,227.961 L 351.809,230.712 L 349.15,230.712 L 349.15,235.039 C 349.15,236.48 349.503,237.143 350.617,237.143 C 351.136,237.143 351.368,237.118 351.709,237.044 L 351.739,239.859 C 351.276,240.027 350.362,240.182 349.342,240.182 C 348.145,240.182 347.147,239.758 346.522,239.154 C 345.846,238.444 345.497,237.29 345.497,235.602 L 345.497,230.711 L 343.908,230.711 L 343.908,227.96 L 345.497,227.96 L 345.497,225.735 L 349.15,224.731 z"
   id="path35" />
			<path
   d="M 365.23,236.088 C 365.23,237.655 365.298,238.926 365.345,239.935 L 362.099,239.935 L 361.938,238.251 L 361.852,238.251 C 361.388,238.985 360.263,240.208 358.11,240.208 C 355.671,240.208 353.888,238.689 353.888,234.987 L 353.888,227.961 L 357.628,227.961 L 357.628,234.405 C 357.628,236.139 358.197,237.184 359.505,237.184 C 360.528,237.184 361.147,236.481 361.369,235.898 C 361.468,235.676 361.515,235.419 361.515,235.086 L 361.515,227.961 L 365.228,227.961 L 365.228,236.088 L 365.23,236.088 z"
   id="path37" />
			<path
   d="M 372.368,224.731 L 372.368,227.961 L 375.03,227.961 L 375.03,230.712 L 372.368,230.712 L 372.368,235.039 C 372.368,236.48 372.738,237.143 373.823,237.143 C 374.344,237.143 374.575,237.118 374.936,237.044 L 374.95,239.859 C 374.481,240.027 373.582,240.182 372.563,240.182 C 371.36,240.182 370.365,239.758 369.751,239.154 C 369.051,238.444 368.718,237.29 368.718,235.602 L 368.718,230.711 L 367.135,230.711 L 367.135,227.96 L 368.718,227.96 L 368.718,225.735 L 372.368,224.731 z"
   id="path39" />
			<path
   d="M 388.868,233.815 C 388.868,238.19 385.748,240.208 382.537,240.208 C 379.051,240.208 376.355,237.903 376.355,234.033 C 376.355,230.147 378.892,227.667 382.757,227.667 C 386.404,227.667 388.868,230.188 388.868,233.815 M 380.184,233.941 C 380.184,235.994 381.07,237.534 382.658,237.534 C 384.111,237.534 385.005,236.086 385.005,233.913 C 385.005,232.144 384.333,230.334 382.658,230.334 C 380.884,230.334 380.184,232.171 380.184,233.941"
   id="path41" />
			<path
   d="M 399.9,223.43 L 399.9,232.908 C 399.9,235.779 401.028,237.213 402.891,237.213 C 404.847,237.213 405.935,235.845 405.935,232.908 L 405.935,223.43 L 409.661,223.43 L 409.661,232.686 C 409.661,237.783 407.087,240.208 402.798,240.208 C 398.616,240.208 396.202,237.885 396.202,232.641 L 396.202,223.43 L 399.9,223.43 z"
   id="path43" />
			<path
   d="M 412.73,231.783 C 412.73,230.291 412.691,229.041 412.625,227.965 L 415.88,227.965 L 416.045,229.625 L 416.098,229.625 C 416.608,228.848 417.813,227.695 419.798,227.695 C 422.264,227.695 424.099,229.331 424.099,232.863 L 424.099,239.934 L 420.372,239.934 L 420.372,233.298 C 420.372,231.757 419.836,230.711 418.494,230.711 C 417.463,230.711 416.848,231.408 416.577,232.106 C 416.485,232.347 416.458,232.687 416.458,233.036 L 416.458,239.935 L 412.73,239.935 L 412.73,231.783 z"
   id="path45" />
			<path
   d="M 430.897,224.625 C 430.897,225.664 430.145,226.495 428.887,226.495 C 427.717,226.495 426.952,225.663 426.952,224.625 C 426.952,223.58 427.731,222.768 428.939,222.768 C 430.146,222.768 430.869,223.58 430.897,224.625 M 427.063,227.962 L 430.777,227.962 L 430.777,239.932 L 427.063,239.932 L 427.063,227.962 z"
   id="path47" />
			<path
   d="M 436.526,227.962 L 438.121,233.527 C 438.432,234.545 438.634,235.484 438.819,236.434 L 438.897,236.434 C 439.103,235.457 439.274,234.544 439.556,233.527 L 441.096,227.962 L 445.013,227.962 L 440.549,239.932 L 436.849,239.932 L 432.464,227.962 L 436.526,227.962 z"
   id="path49" />
			<path
   d="M 449.195,235.135 C 449.291,236.676 450.846,237.412 452.574,237.412 C 453.845,237.412 454.866,237.239 455.884,236.904 L 456.369,239.425 C 455.135,239.931 453.645,240.183 452.052,240.183 C 447.99,240.183 445.656,237.829 445.656,234.089 C 445.656,231.045 447.533,227.693 451.687,227.693 C 455.562,227.693 457.013,230.71 457.013,233.665 C 457.013,234.304 456.955,234.868 456.918,235.135 L 449.195,235.135 z M 453.594,232.588 C 453.594,231.688 453.176,230.169 451.488,230.169 C 449.907,230.169 449.264,231.609 449.17,232.588 L 453.594,232.588 z"
   id="path51" />
			<path
   d="M 459.225,231.903 C 459.225,230.148 459.211,228.995 459.131,227.965 L 462.308,227.965 L 462.456,230.169 L 462.563,230.169 C 463.163,228.406 464.613,227.668 465.778,227.668 C 466.141,227.668 466.301,227.695 466.569,227.741 L 466.569,231.246 C 466.277,231.2 465.995,231.147 465.578,231.147 C 464.183,231.147 463.273,231.883 463.017,233.035 C 462.976,233.278 462.95,233.565 462.95,233.858 L 462.95,239.934 L 459.224,239.934 L 459.224,231.903 L 459.225,231.903 z"
   id="path53" />
			<path
   d="M 468.498,236.71 C 469.172,237.118 470.605,237.58 471.69,237.58 C 472.832,237.58 473.288,237.214 473.288,236.602 C 473.288,235.966 472.926,235.677 471.57,235.215 C 469.065,234.384 468.097,233.036 468.138,231.61 C 468.138,229.359 470.042,227.668 472.992,227.668 C 474.397,227.668 475.62,228.019 476.356,228.378 L 475.698,230.956 C 475.187,230.659 474.135,230.269 473.127,230.269 C 472.2,230.269 471.689,230.63 471.689,231.224 C 471.689,231.812 472.159,232.105 473.646,232.614 C 475.9,233.409 476.839,234.575 476.865,236.316 C 476.865,238.568 475.136,240.21 471.689,240.21 C 470.133,240.21 468.726,239.842 467.843,239.353 L 468.498,236.71 z"
   id="path55" />
			<path
   d="M 482.966,224.625 C 482.966,225.664 482.214,226.495 480.941,226.495 C 479.789,226.495 479.026,225.663 479.026,224.625 C 479.026,223.58 479.803,222.768 481.008,222.768 C 482.214,222.768 482.926,223.58 482.966,224.625 M 479.116,227.962 L 482.845,227.962 L 482.845,239.932 L 479.116,239.932 L 479.116,227.962 z"
   id="path57" />
			<path
   d="M 489.979,224.731 L 489.979,227.961 L 492.645,227.961 L 492.645,230.712 L 489.979,230.712 L 489.979,235.039 C 489.979,236.48 490.354,237.143 491.453,237.143 C 491.965,237.143 492.216,237.118 492.554,237.044 L 492.577,239.859 C 492.109,240.027 491.2,240.182 490.168,240.182 C 488.971,240.182 487.956,239.758 487.351,239.154 C 486.682,238.444 486.321,237.29 486.321,235.602 L 486.321,230.711 L 484.738,230.711 L 484.738,227.96 L 486.321,227.96 L 486.321,225.735 L 489.979,224.731 z"
   id="path59" />
			<path
   d="M 504.75,237.044 C 504.75,238.178 504.792,239.276 504.939,239.935 L 501.597,239.935 L 501.36,238.742 L 501.28,238.742 C 500.502,239.692 499.28,240.209 497.861,240.209 C 495.432,240.209 493.998,238.446 493.998,236.535 C 493.998,233.428 496.788,231.951 501.022,231.951 L 501.022,231.813 C 501.022,231.148 500.675,230.241 498.851,230.241 C 497.619,230.241 496.316,230.658 495.541,231.148 L 494.843,228.754 C 495.686,228.285 497.323,227.669 499.495,227.669 C 503.489,227.669 504.749,230.028 504.749,232.864 L 504.749,237.044 L 504.75,237.044 z M 501.145,234.278 C 499.187,234.278 497.672,234.746 497.672,236.169 C 497.672,237.12 498.302,237.582 499.119,237.582 C 500.047,237.582 500.808,236.97 501.078,236.214 C 501.131,236.02 501.144,235.805 501.144,235.577 L 501.144,234.278 L 501.145,234.278 z"
   id="path61" />
			<path
   d="M 507.688,231.903 C 507.688,230.148 507.661,228.995 507.593,227.965 L 510.771,227.965 L 510.917,230.169 L 510.998,230.169 C 511.613,228.406 513.062,227.668 514.227,227.668 C 514.589,227.668 514.751,227.695 515.018,227.741 L 515.018,231.246 C 514.738,231.2 514.441,231.147 514.027,231.147 C 512.647,231.147 511.734,231.883 511.478,233.035 C 511.425,233.278 511.412,233.565 511.412,233.858 L 511.412,239.934 L 507.687,239.934 L 507.687,231.903 L 507.688,231.903 z"
   id="path63" />
			<path
   d="M 520.797,224.625 C 520.797,225.664 520.047,226.495 518.801,226.495 C 517.637,226.495 516.885,225.663 516.885,224.625 C 516.885,223.58 517.637,222.768 518.84,222.768 C 520.047,222.768 520.784,223.58 520.797,224.625 M 516.977,227.962 L 520.692,227.962 L 520.692,239.932 L 516.977,239.932 L 516.977,227.962 z"
   id="path65" />
			<path
   d="M 535.478,233.815 C 535.478,238.19 532.378,240.208 529.176,240.208 C 525.666,240.208 522.983,237.903 522.983,234.033 C 522.983,230.147 525.517,227.667 529.393,227.667 C 533.036,227.667 535.478,230.188 535.478,233.815 M 526.818,233.941 C 526.818,235.994 527.673,237.534 529.27,237.534 C 530.719,237.534 531.643,236.086 531.643,233.913 C 531.643,232.144 530.957,230.334 529.27,230.334 C 527.488,230.334 526.818,232.171 526.818,233.941"
   id="path67" />
			<path
   d="M 554.3,222.545 L 554.3,236.361 C 554.3,237.707 554.354,239.13 554.394,239.931 L 551.082,239.931 L 550.948,238.19 L 550.868,238.19 C 550.142,239.519 548.656,240.208 547.114,240.208 C 544.285,240.208 542.006,237.783 542.006,234.053 C 541.993,230.027 544.498,227.667 547.367,227.667 C 548.87,227.667 549.995,228.21 550.531,229.014 L 550.572,229.014 L 550.572,222.545 L 554.3,222.545 z M 550.572,233.036 C 550.572,232.836 550.572,232.568 550.531,232.347 C 550.301,231.369 549.5,230.531 548.358,230.531 C 546.631,230.531 545.786,232.053 545.786,233.941 C 545.786,235.967 546.793,237.24 548.319,237.24 C 549.405,237.24 550.276,236.518 550.516,235.458 C 550.556,235.191 550.572,234.895 550.572,234.599 L 550.572,233.036 z"
   id="path69" />
			<path
   d="M 560.116,235.135 C 560.209,236.676 561.75,237.412 563.496,237.412 C 564.757,237.412 565.788,237.239 566.806,236.904 L 567.288,239.425 C 566.059,239.931 564.567,240.183 562.962,240.183 C 558.881,240.183 556.566,237.829 556.566,234.089 C 556.566,231.045 558.454,227.693 562.611,227.693 C 566.485,227.693 567.948,230.71 567.948,233.665 C 567.948,234.304 567.883,234.868 567.842,235.135 L 560.116,235.135 z M 564.517,232.588 C 564.517,231.688 564.102,230.169 562.399,230.169 C 560.826,230.169 560.185,231.609 560.077,232.588 L 564.517,232.588 z"
   id="path71" />
			<rect
   x="575.23999"
   y="223.433"
   width="3.7130001"
   height="16.503"
   id="rect73" />
			<path
   d="M 582.13,231.783 C 582.13,230.291 582.091,229.041 582.038,227.965 L 585.28,227.965 L 585.428,229.625 L 585.509,229.625 C 585.99,228.848 587.198,227.695 589.208,227.695 C 591.649,227.695 593.498,229.331 593.498,232.863 L 593.498,239.934 L 589.772,239.934 L 589.772,233.298 C 589.772,231.757 589.219,230.711 587.892,230.711 C 586.863,230.711 586.243,231.408 585.978,232.106 C 585.883,232.347 585.842,232.687 585.842,233.036 L 585.842,239.935 L 582.128,239.935 L 582.128,231.783 L 582.13,231.783 z"
   id="path75" />
			<path
   d="M 598.752,227.962 L 600.364,233.527 C 600.661,234.545 600.857,235.484 601.049,236.434 L 601.14,236.434 C 601.328,235.457 601.517,234.544 601.784,233.527 L 603.34,227.962 L 607.228,227.962 L 602.778,239.932 L 599.076,239.932 L 594.707,227.962 L 598.752,227.962 z"
   id="path77" />
			<path
   d="M 611.438,235.135 C 611.53,236.676 613.073,237.412 614.801,237.412 C 616.074,237.412 617.106,237.239 618.125,236.904 L 618.595,239.425 C 617.389,239.931 615.887,240.183 614.279,240.183 C 610.216,240.183 607.885,237.829 607.885,234.089 C 607.885,231.045 609.759,227.693 613.914,227.693 C 617.805,227.693 619.265,230.71 619.265,233.665 C 619.265,234.304 619.197,234.868 619.147,235.135 L 611.438,235.135 z M 615.818,232.588 C 615.818,231.688 615.403,230.169 613.712,230.169 C 612.147,230.169 611.49,231.609 611.398,232.588 L 615.818,232.588 z"
   id="path79" />
			<path
   d="M 621.451,236.71 C 622.12,237.118 623.539,237.58 624.64,237.58 C 625.752,237.58 626.236,237.214 626.236,236.602 C 626.236,235.966 625.863,235.677 624.494,235.215 C 622.014,234.384 621.05,233.036 621.076,231.61 C 621.076,229.359 622.992,227.668 625.942,227.668 C 627.347,227.668 628.567,228.019 629.304,228.378 L 628.662,230.956 C 628.124,230.659 627.065,230.269 626.073,230.269 C 625.148,230.269 624.639,230.63 624.639,231.224 C 624.639,231.812 625.108,232.105 626.596,232.614 C 628.848,233.409 629.786,234.575 629.816,236.316 C 629.816,238.568 628.072,240.21 624.639,240.21 C 623.082,240.21 621.678,239.842 620.791,239.353 L 621.451,236.71 z"
   id="path81" />
			<path
   d="M 636.238,224.731 L 636.238,227.961 L 638.891,227.961 L 638.891,230.712 L 636.238,230.712 L 636.238,235.039 C 636.238,236.48 636.597,237.143 637.712,237.143 C 638.234,237.143 638.462,237.118 638.81,237.044 L 638.826,239.859 C 638.369,240.027 637.443,240.182 636.428,240.182 C 635.245,240.182 634.212,239.758 633.611,239.154 C 632.926,238.444 632.59,237.29 632.59,235.602 L 632.59,230.711 L 630.995,230.711 L 630.995,227.96 L 632.59,227.96 L 632.59,225.735 L 636.238,224.731 z"
   id="path83" />
			<path
   d="M 644.883,224.625 C 644.883,225.664 644.118,226.495 642.871,226.495 C 641.694,226.495 640.942,225.663 640.942,224.625 C 640.942,223.58 641.722,222.768 642.925,222.768 C 644.118,222.768 644.854,223.58 644.883,224.625 M 641.037,227.962 L 644.766,227.962 L 644.766,239.932 L 641.037,239.932 L 641.037,227.962 z"
   id="path85" />
			<path
   d="M 659.054,238.192 C 659.054,240.496 658.599,242.382 657.245,243.58 C 655.93,244.708 654.149,245.055 652.393,245.055 C 650.783,245.055 649.148,244.733 648.074,244.143 L 648.813,241.309 C 649.563,241.75 650.864,242.212 652.284,242.212 C 654.055,242.212 655.396,241.28 655.396,239.051 L 655.396,238.301 L 655.341,238.301 C 654.63,239.279 653.491,239.841 652.11,239.841 C 649.148,239.841 647.041,237.44 647.041,234.009 C 647.041,230.148 649.523,227.694 652.487,227.694 C 654.106,227.694 655.141,228.404 655.755,229.411 L 655.812,229.411 L 655.93,227.962 L 659.162,227.962 C 659.121,228.752 659.054,229.754 659.054,231.543 L 659.054,238.192 L 659.054,238.192 z M 655.342,232.835 C 655.342,232.612 655.315,232.366 655.274,232.144 C 655.007,231.167 654.295,230.51 653.264,230.51 C 651.899,230.51 650.824,231.736 650.824,233.915 C 650.824,235.698 651.696,237.091 653.239,237.091 C 654.203,237.091 654.993,236.459 655.234,235.603 C 655.315,235.309 655.342,234.921 655.342,234.598 L 655.342,232.835 L 655.342,232.835 z"
   id="path87" />
			<path
   d="M 671.992,237.044 C 671.992,238.178 672.031,239.276 672.179,239.935 L 668.841,239.935 L 668.613,238.742 L 668.531,238.742 C 667.766,239.692 666.52,240.209 665.113,240.209 C 662.675,240.209 661.237,238.446 661.237,236.535 C 661.237,233.428 664.026,231.951 668.274,231.951 L 668.274,231.813 C 668.274,231.148 667.927,230.241 666.092,230.241 C 664.872,230.241 663.573,230.658 662.779,231.148 L 662.11,228.754 C 662.943,228.285 664.576,227.669 666.75,227.669 C 670.758,227.669 671.992,230.028 671.992,232.864 L 671.992,237.044 L 671.992,237.044 z M 668.385,234.278 C 666.426,234.278 664.912,234.746 664.912,236.169 C 664.912,237.12 665.558,237.582 666.372,237.582 C 667.298,237.582 668.06,236.97 668.315,236.214 C 668.371,236.02 668.384,235.805 668.384,235.577 L 668.384,234.278 L 668.385,234.278 z"
   id="path89" />
			<path
   d="M 683.91,239.611 C 683.253,239.932 682.004,240.184 680.587,240.184 C 676.712,240.184 674.242,237.808 674.242,234.058 C 674.242,230.558 676.628,227.694 681.094,227.694 C 682.087,227.694 683.155,227.872 683.922,228.164 L 683.347,230.92 C 682.89,230.731 682.235,230.557 681.256,230.557 C 679.3,230.557 678.025,231.95 678.064,233.913 C 678.064,236.088 679.527,237.265 681.335,237.265 C 682.22,237.265 682.891,237.119 683.468,236.88 L 683.91,239.611 z"
   id="path91" />
			<path
   d="M 689.781,224.625 C 689.781,225.664 689.029,226.495 687.769,226.495 C 686.589,226.495 685.837,225.663 685.837,224.625 C 685.837,223.58 686.614,222.768 687.824,222.768 C 689.029,222.768 689.769,223.58 689.781,224.625 M 685.92,227.962 L 689.66,227.962 L 689.66,239.932 L 685.92,239.932 L 685.92,227.962 z"
   id="path93" />
			<path
   d="M 704.457,233.815 C 704.457,238.19 701.362,240.208 698.16,240.208 C 694.647,240.208 691.965,237.903 691.965,234.033 C 691.965,230.147 694.514,227.667 698.375,227.667 C 702.022,227.667 704.457,230.188 704.457,233.815 M 695.801,233.941 C 695.801,235.994 696.657,237.534 698.252,237.534 C 699.699,237.534 700.626,236.086 700.626,233.913 C 700.626,232.144 699.942,230.334 698.252,230.334 C 696.483,230.334 695.801,232.171 695.801,233.941 M 702.089,222.748 L 699.098,226.462 L 696.564,226.462 L 698.671,222.748 L 702.089,222.748 z"
   id="path95" />
			<path
   d="M 706.726,231.783 C 706.726,230.291 706.687,229.041 706.634,227.965 L 709.863,227.965 L 710.039,229.625 L 710.104,229.625 C 710.601,228.848 711.808,227.695 713.803,227.695 C 716.257,227.695 718.095,229.331 718.095,232.863 L 718.095,239.934 L 714.366,239.934 L 714.366,233.298 C 714.366,231.757 713.829,230.711 712.489,230.711 C 711.458,230.711 710.853,231.408 710.57,232.106 C 710.479,232.347 710.466,232.687 710.466,233.036 L 710.466,239.935 L 706.725,239.935 L 706.725,231.783 L 706.726,231.783 z"
   id="path97" />
		</g><g
   id="g99"
   transform="matrix(3.6314058,0,0,3.6314058,-1085.1446,-787.82403)">
			<path
   d="M 297.505,246.537 C 299.06,246.262 302.157,245.987 305.151,245.987 C 308.753,245.987 310.965,246.336 312.901,247.462 C 314.73,248.435 316.019,250.218 316.019,252.631 C 316.019,254.909 314.659,257.04 311.714,258.165 L 311.714,258.263 C 314.704,259.024 316.904,261.315 316.904,264.649 C 316.904,267.056 315.823,268.916 314.176,270.244 C 312.294,271.753 309.11,272.606 303.9,272.606 C 300.99,272.606 298.827,272.403 297.505,272.217 L 297.505,246.537 z M 303.363,256.544 L 305.301,256.544 C 308.455,256.544 310.072,255.257 310.072,253.327 C 310.072,251.346 308.558,250.298 305.894,250.298 C 304.561,250.298 303.827,250.378 303.362,250.453 L 303.362,256.544 L 303.363,256.544 z M 303.363,268.142 C 303.947,268.222 304.645,268.222 305.65,268.222 C 308.336,268.222 310.702,267.174 310.702,264.415 C 310.702,261.821 308.335,260.766 305.368,260.766 L 303.363,260.766 L 303.363,268.142 z"
   id="path101" />
			<path
   d="M 326.876,248.085 C 326.876,249.71 325.67,251.035 323.706,251.035 C 321.835,251.035 320.63,249.709 320.63,248.085 C 320.63,246.422 321.876,245.135 323.758,245.135 C 325.67,245.135 326.83,246.422 326.876,248.085 M 320.791,253.359 L 326.663,253.359 L 326.663,272.338 L 320.791,272.338 L 320.791,253.359 z"
   id="path103" />
			<path
   d="M 350.215,262.631 C 350.215,269.583 345.276,272.754 340.202,272.754 C 334.664,272.754 330.388,269.12 330.388,262.981 C 330.388,256.814 334.417,252.898 340.565,252.898 C 346.343,252.897 350.215,256.893 350.215,262.631 M 336.468,262.825 C 336.468,266.089 337.837,268.532 340.363,268.532 C 342.689,268.532 344.118,266.244 344.118,262.792 C 344.118,259.99 343.03,257.12 340.363,257.12 C 337.567,257.119 336.468,260.029 336.468,262.825"
   id="path105" />
			<path
   d="M 368.269,271.829 C 367.22,272.338 365.237,272.725 362.991,272.725 C 356.853,272.725 352.924,268.958 352.924,263.029 C 352.924,257.469 356.737,252.938 363.79,252.938 C 365.357,252.938 367.06,253.208 368.301,253.677 L 367.363,258.054 C 366.665,257.745 365.62,257.469 364.072,257.469 C 360.963,257.469 358.958,259.68 358.998,262.791 C 358.998,266.244 361.323,268.1 364.18,268.1 C 365.573,268.1 366.665,267.879 367.57,267.486 L 368.269,271.829 z"
   id="path107" />
			<path
   d="M 389.889,262.631 C 389.889,269.583 384.959,272.754 379.871,272.754 C 374.326,272.754 370.064,269.12 370.064,262.981 C 370.064,256.814 374.092,252.898 380.224,252.898 C 386.003,252.897 389.889,256.893 389.889,262.631 M 376.152,262.825 C 376.152,266.089 377.496,268.532 380.027,268.532 C 382.35,268.532 383.794,266.244 383.794,262.792 C 383.794,259.99 382.711,257.12 380.027,257.12 C 377.245,257.119 376.152,260.029 376.152,262.825"
   id="path109" />
			<path
   d="M 393.574,259.414 C 393.574,257.042 393.483,255.07 393.415,253.359 L 398.432,253.359 L 398.643,255.921 L 398.763,255.921 C 399.582,254.68 401.285,252.897 404.515,252.897 C 406.994,252.897 408.914,254.178 409.703,256.15 L 409.797,256.15 C 410.535,255.142 411.338,254.365 412.291,253.83 C 413.323,253.247 414.488,252.897 415.882,252.897 C 419.527,252.897 422.278,255.457 422.278,261.159 L 422.278,272.337 L 416.539,272.337 L 416.539,262.014 C 416.539,259.26 415.651,257.669 413.742,257.669 C 412.344,257.669 411.418,258.602 411.003,259.722 C 410.884,260.149 410.804,260.734 410.804,261.238 L 410.804,272.336 L 405.063,272.336 L 405.063,261.666 C 405.063,259.296 404.193,257.668 402.32,257.668 C 400.788,257.668 399.908,258.837 399.542,259.763 C 399.366,260.229 399.313,260.768 399.313,261.276 L 399.313,272.336 L 393.575,272.336 L 393.575,259.414 L 393.574,259.414 z"
   id="path111" />
			<path
   d="M 426.969,259.72 C 426.969,257.242 426.89,255.144 426.795,253.359 L 431.93,253.359 L 432.184,256.001 L 432.279,256.001 C 433.675,254.025 435.844,252.938 438.593,252.938 C 442.748,252.938 446.475,256.543 446.475,262.59 C 446.475,269.498 442.079,272.752 437.872,272.752 C 435.563,272.752 433.782,271.829 432.934,270.582 L 432.855,270.582 L 432.855,280.018 L 426.968,280.018 L 426.968,259.72 L 426.969,259.72 z M 432.855,264.187 C 432.855,264.65 432.893,265.038 432.975,265.434 C 433.361,267.022 434.718,268.222 436.434,268.222 C 438.995,268.222 440.497,266.091 440.497,262.872 C 440.497,259.841 439.156,257.548 436.501,257.548 C 434.836,257.548 433.36,258.794 432.975,260.54 C 432.893,260.848 432.855,261.236 432.855,261.585 L 432.855,264.187 z"
   id="path113" />
			<path
   d="M 468.1,266.244 C 468.1,268.724 468.166,270.743 468.248,272.338 L 463.127,272.338 L 462.859,269.655 L 462.738,269.655 C 462,270.823 460.218,272.754 456.783,272.754 C 452.927,272.754 450.137,270.353 450.137,264.497 L 450.137,253.36 L 456.019,253.36 L 456.019,263.57 C 456.019,266.32 456.934,267.989 459.012,267.989 C 460.63,267.989 461.626,266.853 461.947,265.928 C 462.119,265.58 462.199,265.151 462.199,264.649 L 462.199,253.359 L 468.1,253.359 L 468.1,266.244 L 468.1,266.244 z"
   id="path115" />
			<path
   d="M 479.454,248.24 L 479.454,253.362 L 483.69,253.362 L 483.69,257.711 L 479.454,257.711 L 479.454,264.575 C 479.454,266.853 480.045,267.913 481.787,267.913 C 482.605,267.913 482.993,267.88 483.543,267.76 L 483.569,272.216 C 482.843,272.491 481.397,272.727 479.777,272.727 C 477.858,272.727 476.277,272.058 475.312,271.091 C 474.24,269.971 473.675,268.14 473.675,265.465 L 473.675,257.711 L 471.154,257.711 L 471.154,253.362 L 473.675,253.362 L 473.675,249.83 L 479.454,248.24 z"
   id="path117" />
			<path
   d="M 502.954,267.759 C 502.954,269.537 503.031,271.285 503.251,272.338 L 497.956,272.338 L 497.594,270.434 L 497.487,270.434 C 496.226,271.949 494.31,272.754 492.071,272.754 C 488.208,272.754 485.917,269.971 485.917,266.948 C 485.917,262.014 490.331,259.68 497.057,259.68 L 497.057,259.453 C 497.057,258.393 496.507,256.966 493.6,256.966 C 491.669,256.966 489.615,257.631 488.357,258.393 L 487.288,254.6 C 488.601,253.869 491.201,252.897 494.645,252.897 C 500.974,252.897 502.956,256.627 502.956,261.12 L 502.956,267.759 L 502.954,267.759 z M 497.246,263.368 C 494.147,263.368 491.732,264.107 491.732,266.356 C 491.732,267.88 492.739,268.61 494.066,268.61 C 495.504,268.61 496.746,267.639 497.138,266.438 C 497.217,266.13 497.245,265.77 497.245,265.43 L 497.245,263.368 L 497.246,263.368 z"
   id="path119" />
			<path
   d="M 521.923,271.829 C 520.895,272.338 518.908,272.725 516.656,272.725 C 510.515,272.725 506.598,268.958 506.598,263.029 C 506.598,257.469 510.409,252.938 517.474,252.938 C 519.017,252.938 520.73,253.208 521.961,253.677 L 521.024,258.054 C 520.343,257.745 519.297,257.469 517.729,257.469 C 514.631,257.469 512.621,259.68 512.659,262.791 C 512.659,266.244 514.979,268.1 517.85,268.1 C 519.24,268.1 520.343,267.879 521.241,267.486 L 521.923,271.829 z"
   id="path121" />
			<path
   d="M 531.324,248.085 C 531.324,249.71 530.116,251.035 528.158,251.035 C 526.28,251.035 525.074,249.709 525.074,248.085 C 525.074,246.422 526.337,245.135 528.238,245.135 C 530.116,245.135 531.295,246.422 531.324,248.085 M 525.249,253.359 L 531.148,253.359 L 531.148,272.338 L 525.249,272.338 L 525.249,253.359 z"
   id="path123" />
			<path
   d="M 554.663,262.631 C 554.663,269.583 549.727,272.754 544.648,272.754 C 539.096,272.754 534.846,269.12 534.846,262.981 C 534.846,256.814 538.868,252.898 545.01,252.898 C 550.802,252.897 554.663,256.893 554.663,262.631 M 540.918,262.825 C 540.918,266.089 542.287,268.528 544.824,268.528 C 547.141,268.528 548.575,266.244 548.575,262.791 C 548.575,259.989 547.477,257.119 544.824,257.119 C 542.02,257.119 540.918,260.029 540.918,262.825 M 550.895,245.097 L 546.163,250.996 L 542.128,250.996 L 545.48,245.097 L 550.895,245.097 z"
   id="path125" />
			<path
   d="M 558.361,259.414 C 558.361,257.042 558.281,255.07 558.202,253.359 L 563.338,253.359 L 563.606,256.001 L 563.71,256.001 C 564.489,254.761 566.406,252.937 569.57,252.937 C 573.445,252.937 576.369,255.539 576.369,261.125 L 576.369,272.337 L 570.453,272.337 L 570.453,261.821 C 570.453,259.382 569.61,257.71 567.479,257.71 C 565.857,257.71 564.878,258.839 564.448,259.916 C 564.303,260.311 564.262,260.849 564.262,261.397 L 564.262,272.337 L 558.361,272.337 L 558.361,259.414 z"
   id="path127" />
			<path
   d="M 593.459,253.359 L 596.286,262.712 C 596.611,263.798 596.983,265.233 597.224,266.244 L 597.385,266.244 C 597.626,265.193 597.922,263.799 598.189,262.678 L 600.563,253.36 L 606.852,253.36 L 602.427,265.854 C 599.723,273.41 597.882,276.405 595.764,278.308 C 593.726,280.094 591.567,280.749 590.079,280.906 L 588.821,275.944 C 589.531,275.785 590.469,275.435 591.369,274.933 C 592.254,274.464 593.269,273.498 593.818,272.565 C 593.994,272.255 594.117,271.95 594.117,271.709 C 594.117,271.479 594.087,271.211 593.901,270.741 L 586.902,253.36 L 593.459,253.36 L 593.459,253.359 z"
   id="path129" />
			<polygon
   points="617.498,246.188 633.461,246.188 633.461,251.035 623.396,251.035 623.396,257.006 632.806,257.006 632.806,261.818 623.396,261.818 623.396,272.338 617.498,272.338 617.498,246.188 "
   id="polygon131" />
			<path
   d="M 636.988,253.359 L 642.9,253.359 L 642.9,272.338 L 636.988,272.338 L 636.988,253.359 z M 646.24,245.097 L 641.492,250.996 L 637.471,250.996 L 640.794,245.097 L 646.24,245.097 z"
   id="path133" />
			<path
   d="M 647.649,267.217 C 648.743,267.88 650.982,268.61 652.727,268.61 C 654.523,268.61 655.247,268.021 655.247,267.057 C 655.247,266.057 654.671,265.581 652.5,264.848 C 648.557,263.531 647.028,261.399 647.067,259.145 C 647.067,255.574 650.096,252.898 654.779,252.898 C 657.004,252.898 658.947,253.432 660.114,254.025 L 659.097,258.092 C 658.237,257.63 656.574,257.007 654.981,257.007 C 653.543,257.007 652.727,257.591 652.727,258.523 C 652.727,259.454 653.463,259.917 655.798,260.733 C 659.417,261.982 660.877,263.838 660.932,266.595 C 660.932,270.167 658.158,272.752 652.727,272.752 C 650.261,272.752 648.024,272.176 646.598,271.397 L 647.649,267.217 z"
   id="path135" />
			<path
   d="M 670.692,248.085 C 670.692,249.71 669.484,251.035 667.5,251.035 C 665.635,251.035 664.435,249.709 664.435,248.085 C 664.435,246.422 665.664,245.135 667.568,245.135 C 669.484,245.135 670.639,246.422 670.692,248.085 M 664.592,253.359 L 670.475,253.359 L 670.475,272.338 L 664.592,272.338 L 664.592,253.359 z"
   id="path137" />
			<path
   d="M 689.499,271.829 C 688.453,272.338 686.472,272.725 684.23,272.725 C 678.104,272.725 674.19,268.958 674.19,263.029 C 674.19,257.469 677.971,252.938 685.049,252.938 C 686.592,252.938 688.308,253.208 689.536,253.677 L 688.615,258.054 C 687.905,257.745 686.859,257.469 685.319,257.469 C 682.215,257.469 680.197,259.68 680.249,262.791 C 680.249,266.244 682.557,268.1 685.437,268.1 C 686.832,268.1 687.906,267.879 688.802,267.486 L 689.499,271.829 z"
   id="path139" />
			<path
   d="M 708.766,267.759 C 708.766,269.537 708.832,271.285 709.076,272.338 L 703.754,272.338 L 703.403,270.434 L 703.281,270.434 C 702.05,271.949 700.104,272.754 697.854,272.754 C 694.02,272.754 691.738,269.971 691.738,266.948 C 691.738,262.014 696.151,259.68 702.867,259.68 L 702.867,259.453 C 702.867,258.393 702.318,256.966 699.42,256.966 C 697.465,256.966 695.413,257.631 694.179,258.393 L 693.079,254.6 C 694.394,253.869 697.009,252.897 700.455,252.897 C 706.781,252.897 708.767,256.627 708.767,261.12 L 708.767,267.759 L 708.766,267.759 z M 703.054,263.368 C 699.971,263.368 697.559,264.107 697.559,266.356 C 697.559,267.88 698.562,268.61 699.877,268.61 C 701.31,268.61 702.546,267.639 702.946,266.438 C 703.016,266.13 703.053,265.77 703.053,265.43 L 703.053,263.368 L 703.054,263.368 z"
   id="path141" />
			<path
   d="M 315.698,282.058 L 315.698,303.937 C 315.698,306.068 315.777,308.318 315.858,309.598 L 310.622,309.598 L 310.386,306.842 L 310.26,306.842 C 309.11,308.944 306.767,310.021 304.328,310.021 C 299.838,310.021 296.217,306.189 296.217,300.292 C 296.185,293.893 300.179,290.166 304.717,290.166 C 307.084,290.166 308.873,291.02 309.732,292.3 L 309.797,292.3 L 309.797,282.059 L 315.698,282.059 L 315.698,282.058 z M 309.796,298.661 C 309.796,298.352 309.796,297.921 309.731,297.573 C 309.374,296.021 308.096,294.698 306.278,294.698 C 303.565,294.698 302.195,297.113 302.195,300.094 C 302.195,303.32 303.786,305.332 306.23,305.332 C 307.928,305.332 309.331,304.163 309.684,302.501 C 309.764,302.071 309.796,301.602 309.796,301.144 L 309.796,298.661 L 309.796,298.661 z"
   id="path143" />
			<path
   d="M 325.014,301.989 C 325.173,304.446 327.62,305.605 330.363,305.605 C 332.391,305.605 334.016,305.332 335.603,304.792 L 336.38,308.787 C 334.45,309.597 332.063,309.992 329.517,309.992 C 323.074,309.992 319.391,306.265 319.391,300.327 C 319.391,295.515 322.38,290.205 328.961,290.205 C 335.106,290.205 337.422,294.978 337.422,299.671 C 337.422,300.677 337.314,301.575 337.233,301.987 L 325.014,301.987 L 325.014,301.989 z M 331.952,297.961 C 331.952,296.521 331.34,294.12 328.613,294.12 C 326.149,294.12 325.126,296.408 324.986,297.961 L 331.952,297.961 z"
   id="path145" />
			<path
   d="M 349.297,303.512 C 350.842,304.327 353.333,305.142 355.855,305.142 C 358.569,305.142 360.004,304.019 360.004,302.311 C 360.004,300.679 358.764,299.739 355.607,298.661 C 351.283,297.113 348.406,294.698 348.406,290.903 C 348.406,286.443 352.152,283.07 358.302,283.07 C 361.281,283.07 363.406,283.647 364.969,284.384 L 363.649,289.121 C 362.629,288.614 360.738,287.876 358.213,287.876 C 355.662,287.876 354.412,289.073 354.412,290.397 C 354.412,292.072 355.854,292.793 359.264,294.088 C 363.877,295.79 366.013,298.197 366.013,301.884 C 366.013,306.267 362.677,309.993 355.496,309.993 C 352.508,309.993 349.572,309.177 348.09,308.357 L 349.297,303.512 z"
   id="path147" />
			<path
   d="M 375.996,285.347 C 375.996,286.989 374.788,288.304 372.813,288.304 C 370.957,288.304 369.745,286.989 369.745,285.347 C 369.745,283.686 371.001,282.403 372.886,282.403 C 374.788,282.403 375.959,283.687 375.996,285.347 M 369.896,290.629 L 375.801,290.629 L 375.801,309.598 L 369.896,309.598 L 369.896,290.629 z"
   id="path149" />
			<path
   d="M 380.56,304.483 C 381.645,305.141 383.893,305.879 385.636,305.879 C 387.42,305.879 388.16,305.288 388.16,304.322 C 388.16,303.318 387.586,302.846 385.415,302.111 C 381.455,300.795 379.919,298.659 379.977,296.407 C 379.977,292.842 383.002,290.165 387.686,290.165 C 389.915,290.165 391.857,290.704 393.012,291.284 L 391.992,295.357 C 391.147,294.896 389.473,294.282 387.88,294.282 C 386.452,294.282 385.635,294.856 385.635,295.79 C 385.635,296.72 386.379,297.189 388.707,298.007 C 392.313,299.239 393.776,301.106 393.828,303.86 C 393.828,307.43 391.066,310.019 385.635,310.019 C 383.168,310.019 380.941,309.444 379.507,308.669 L 380.56,304.483 z"
   id="path151" />
			<path
   d="M 404.086,285.503 L 404.086,290.634 L 408.309,290.634 L 408.309,294.98 L 404.086,294.98 L 404.086,301.845 C 404.086,304.13 404.662,305.176 406.418,305.176 C 407.223,305.176 407.624,305.142 408.148,305.021 L 408.201,309.486 C 407.462,309.756 406.028,309.994 404.393,309.994 C 402.49,309.994 400.909,309.323 399.928,308.358 C 398.842,307.243 398.308,305.41 398.308,302.73 L 398.308,294.98 L 395.775,294.98 L 395.775,290.634 L 398.308,290.634 L 398.308,287.097 L 404.086,285.503 z"
   id="path153" />
			<path
   d="M 416.124,301.989 C 416.272,304.446 418.727,305.605 421.49,305.605 C 423.5,305.605 425.131,305.332 426.7,304.792 L 427.494,308.787 C 425.547,309.597 423.187,309.992 420.614,309.992 C 414.193,309.992 410.495,306.265 410.495,300.327 C 410.495,295.515 413.496,290.205 420.094,290.205 C 426.218,290.205 428.539,294.978 428.539,299.671 C 428.539,300.677 428.432,301.575 428.336,301.987 L 416.124,301.987 L 416.124,301.989 z M 423.081,297.961 C 423.081,296.521 422.451,294.12 419.743,294.12 C 417.238,294.12 416.243,296.408 416.085,297.961 L 423.081,297.961 z"
   id="path155" />
			<path
   d="M 432.131,296.683 C 432.131,294.31 432.037,292.337 431.971,290.629 L 436.957,290.629 L 437.201,293.191 L 437.32,293.191 C 438.135,291.95 439.841,290.167 443.055,290.167 C 445.549,290.167 447.441,291.441 448.257,293.425 L 448.337,293.425 C 449.062,292.414 449.88,291.635 450.806,291.094 C 451.863,290.514 453.03,290.167 454.439,290.167 C 458.085,290.167 460.819,292.727 460.819,298.427 L 460.819,309.598 L 455.093,309.598 L 455.093,299.278 C 455.093,296.522 454.197,294.933 452.293,294.933 C 450.885,294.933 449.961,295.865 449.533,296.991 C 449.411,297.423 449.341,298.012 449.341,298.508 L 449.341,309.599 L 443.606,309.599 L 443.606,298.936 C 443.606,296.564 442.748,294.934 440.847,294.934 C 439.343,294.934 438.444,296.106 438.084,297.034 C 437.896,297.497 437.871,298.039 437.871,298.547 L 437.871,309.6 L 432.13,309.6 L 432.13,296.683 L 432.131,296.683 z"
   id="path157" />
			<path
   d="M 481.304,305.021 C 481.304,306.807 481.37,308.554 481.614,309.598 L 476.291,309.598 L 475.93,307.703 L 475.822,307.703 C 474.588,309.216 472.645,310.02 470.393,310.02 C 466.559,310.02 464.267,307.242 464.267,304.209 C 464.267,299.276 468.693,296.954 475.404,296.954 L 475.404,296.721 C 475.404,295.661 474.856,294.241 471.948,294.241 C 470.004,294.241 467.955,294.898 466.707,295.661 L 465.622,291.869 C 466.934,291.139 469.535,290.166 472.993,290.166 C 479.32,290.166 481.306,293.893 481.306,298.384 L 481.306,305.021 L 481.304,305.021 z M 475.594,300.638 C 472.495,300.638 470.085,301.375 470.085,303.626 C 470.085,305.142 471.099,305.88 472.416,305.88 C 473.848,305.88 475.084,304.912 475.459,303.709 C 475.539,303.391 475.594,303.044 475.594,302.694 L 475.594,300.638 z"
   id="path159" />
			<path
   d="M 486.011,304.483 C 487.095,305.141 489.335,305.879 491.077,305.879 C 492.859,305.879 493.598,305.288 493.598,304.322 C 493.598,303.318 493.02,302.846 490.861,302.111 C 486.896,300.795 485.382,298.659 485.421,296.407 C 485.421,292.842 488.449,290.165 493.143,290.165 C 495.356,290.165 497.299,290.704 498.453,291.284 L 497.432,295.357 C 496.588,294.896 494.911,294.282 493.33,294.282 C 491.897,294.282 491.077,294.856 491.077,295.79 C 491.077,296.72 491.814,297.189 494.147,298.007 C 497.767,299.239 499.216,301.106 499.269,303.86 C 499.269,307.43 496.507,310.019 491.077,310.019 C 488.598,310.019 486.386,309.444 484.951,308.669 L 486.011,304.483 z"
   id="path161" />
			<path
   d="M 530.197,308.896 C 529.135,309.412 526.658,310.022 523.52,310.022 C 514.472,310.022 509.832,304.358 509.832,296.91 C 509.832,287.995 516.187,283.071 524.095,283.071 C 527.166,283.071 529.499,283.648 530.531,284.229 L 529.312,288.879 C 528.132,288.384 526.471,287.912 524.337,287.912 C 519.686,287.912 516.038,290.745 516.038,296.564 C 516.038,301.806 519.124,305.103 524.378,305.103 C 526.186,305.103 528.132,304.753 529.349,304.252 L 530.197,308.896 z"
   id="path163" />
			<path
   d="M 551.966,299.9 C 551.966,306.841 547.034,310.02 541.953,310.02 C 536.39,310.02 532.139,306.378 532.139,300.249 C 532.139,294.086 536.178,290.166 542.287,290.166 C 548.08,290.167 551.966,294.162 551.966,299.9 M 538.228,300.094 C 538.228,303.361 539.581,305.797 542.088,305.797 C 544.433,305.797 545.856,303.514 545.856,300.061 C 545.856,297.258 544.784,294.397 542.088,294.397 C 539.325,294.396 538.228,297.298 538.228,300.094"
   id="path165" />
			<path
   d="M 555.656,296.683 C 555.656,294.31 555.559,292.337 555.493,290.629 L 560.493,290.629 L 560.722,293.191 L 560.842,293.191 C 561.648,291.95 563.364,290.167 566.593,290.167 C 569.061,290.167 570.977,291.441 571.781,293.425 L 571.862,293.425 C 572.599,292.414 573.418,291.635 574.342,291.094 C 575.403,290.514 576.552,290.167 577.947,290.167 C 581.606,290.167 584.352,292.727 584.352,298.427 L 584.352,309.598 L 578.616,309.598 L 578.616,299.278 C 578.616,296.522 577.731,294.933 575.817,294.933 C 574.421,294.933 573.482,295.865 573.067,296.991 C 572.961,297.423 572.879,298.012 572.879,298.508 L 572.879,309.599 L 567.127,309.599 L 567.127,298.936 C 567.127,296.564 566.27,294.934 564.365,294.934 C 562.862,294.934 561.982,296.106 561.616,297.034 C 561.428,297.497 561.376,298.039 561.376,298.547 L 561.376,309.6 L 555.653,309.6 L 555.653,296.683 L 555.656,296.683 z"
   id="path167" />
			<path
   d="M 589.049,296.99 C 589.049,294.511 588.954,292.413 588.873,290.629 L 593.995,290.629 L 594.277,293.262 L 594.358,293.262 C 595.764,291.285 597.922,290.206 600.671,290.206 C 604.828,290.206 608.554,293.811 608.554,299.867 C 608.554,306.769 604.158,310.02 599.935,310.02 C 597.667,310.02 595.872,309.091 595.013,307.85 L 594.936,307.85 L 594.936,317.287 L 589.048,317.287 L 589.048,296.99 L 589.049,296.99 z M 594.937,301.456 C 594.937,301.924 594.973,302.306 595.054,302.694 C 595.444,304.284 596.797,305.491 598.515,305.491 C 601.063,305.491 602.589,303.36 602.589,300.137 C 602.589,297.113 601.223,294.817 598.58,294.817 C 596.915,294.817 595.443,296.067 595.054,297.809 C 594.973,298.117 594.937,298.503 594.937,298.854 L 594.937,301.456 z"
   id="path169" />
			<rect
   x="612.29498"
   y="282.05801"
   width="5.8839998"
   height="27.540001"
   id="rect171" />
			<path
   d="M 627.552,301.989 C 627.71,304.446 630.152,305.605 632.911,305.605 C 634.923,305.605 636.559,305.332 638.14,304.792 L 638.919,308.787 C 636.976,309.597 634.627,309.992 632.042,309.992 C 625.621,309.992 621.92,306.265 621.92,300.327 C 621.92,295.515 624.909,290.205 631.517,290.205 C 637.631,290.205 639.962,294.978 639.962,299.671 C 639.962,300.677 639.858,301.575 639.777,301.987 L 627.552,301.987 L 627.552,301.989 z M 634.509,297.961 C 634.509,296.521 633.878,294.12 631.156,294.12 C 628.664,294.12 627.671,296.408 627.523,297.961 L 634.509,297.961 z"
   id="path173" />
			<path
   d="M 639.669,313.326 C 641.173,313.206 642.432,312.855 643.156,312.086 C 644.003,311.188 644.324,309.678 644.324,305.92 L 644.324,290.629 L 650.22,290.629 L 650.22,307.354 C 650.22,311.471 649.324,313.978 647.543,315.618 C 645.81,317.241 643.038,317.945 640.245,317.945 L 639.669,313.326 z M 650.368,285.347 C 650.368,286.989 649.177,288.304 647.178,288.304 C 645.341,288.304 644.134,286.989 644.134,285.347 C 644.134,283.686 645.368,282.403 647.272,282.403 C 649.177,282.403 650.341,283.687 650.368,285.347"
   id="path175" />
			<path
   d="M 673.641,299.9 C 673.641,306.841 668.706,310.02 663.626,310.02 C 658.063,310.02 653.811,306.378 653.811,300.249 C 653.811,294.086 657.849,290.166 663.962,290.166 C 669.74,290.167 673.641,294.162 673.641,299.9 M 659.897,300.094 C 659.897,303.361 661.252,305.797 663.773,305.797 C 666.094,305.797 667.525,303.514 667.525,300.061 C 667.525,297.258 666.454,294.397 663.773,294.397 C 660.987,294.396 659.897,297.298 659.897,300.094"
   id="path177" />
			<path
   d="M 677.288,304.483 C 678.388,305.141 680.624,305.879 682.354,305.879 C 684.137,305.879 684.888,305.288 684.888,304.322 C 684.888,303.318 684.312,302.846 682.139,302.111 C 678.198,300.795 676.658,298.659 676.708,296.407 C 676.708,292.842 679.742,290.165 684.418,290.165 C 686.646,290.165 688.589,290.704 689.738,291.284 L 688.721,295.357 C 687.873,294.896 686.213,294.282 684.604,294.282 C 683.184,294.282 682.353,294.856 682.353,295.79 C 682.353,296.72 683.104,297.189 685.436,298.007 C 689.043,299.239 690.502,301.106 690.56,303.86 C 690.56,307.43 687.797,310.019 682.353,310.019 C 679.886,310.019 677.663,309.444 676.242,308.669 L 677.288,304.483 z"
   id="path179" />
		</g><g
   id="g181"
   transform="matrix(3.6314058,0,0,3.6314058,-1085.1446,-787.82403)">
			<path
   d="M 304.589,333.781 L 304.589,351.804 C 304.589,357.251 306.684,360.003 310.274,360.003 C 313.995,360.003 316.041,357.394 316.041,351.804 L 316.041,333.781 L 323.114,333.781 L 323.114,351.385 C 323.114,361.078 318.237,365.683 310.041,365.683 C 302.125,365.683 297.497,361.265 297.497,351.29 L 297.497,333.781 L 304.589,333.781 z"
   id="path183"
   style="fill:#9b9c9e" />
			<path
   d="M 327.94,349.664 C 327.94,346.819 327.848,344.448 327.749,342.401 L 333.897,342.401 L 334.22,345.565 L 334.363,345.565 C 335.291,344.083 337.573,341.886 341.389,341.886 C 346.043,341.886 349.543,345.011 349.543,351.708 L 349.543,365.167 L 342.468,365.167 L 342.468,352.552 C 342.468,349.615 341.437,347.615 338.874,347.615 C 336.925,347.615 335.758,348.966 335.244,350.273 C 335.055,350.734 335.009,351.383 335.009,352.042 L 335.009,365.167 L 327.94,365.167 L 327.94,349.664 z"
   id="path185"
   style="fill:#9b9c9e" />
			<path
   d="M 361.432,336.071 C 361.432,338.023 359.988,339.605 357.617,339.605 C 355.375,339.605 353.939,338.023 353.939,336.071 C 353.939,334.067 355.423,332.521 357.713,332.521 C 359.988,332.521 361.387,334.067 361.432,336.071 M 354.126,342.401 L 361.2,342.401 L 361.2,365.168 L 354.126,365.168 L 354.126,342.401 z"
   id="path187"
   style="fill:#9b9c9e" />
			<path
   d="M 371.021,342.401 L 374.11,352.97 C 374.659,354.929 375.025,356.699 375.404,358.512 L 375.546,358.512 C 375.919,356.652 376.29,354.929 376.805,352.97 L 379.734,342.401 L 387.201,342.401 L 378.722,365.168 L 371.63,365.168 L 363.35,342.401 L 371.021,342.401 z"
   id="path189"
   style="fill:#9b9c9e" />
			<path
   d="M 394.083,356.047 C 394.273,358.98 397.212,360.378 400.52,360.378 C 402.947,360.378 404.895,360.042 406.808,359.395 L 407.744,364.192 C 405.4,365.169 402.567,365.644 399.49,365.644 C 391.752,365.644 387.322,361.17 387.322,354.042 C 387.322,348.27 390.927,341.887 398.838,341.887 C 406.198,341.887 408.993,347.616 408.993,353.249 C 408.993,354.462 408.858,355.532 408.76,356.047 L 394.083,356.047 L 394.083,356.047 z M 402.431,351.196 C 402.431,349.473 401.674,346.589 398.417,346.589 C 395.451,346.589 394.233,349.335 394.043,351.196 L 402.431,351.196 L 402.431,351.196 z"
   id="path191"
   style="fill:#9b9c9e" />
			<path
   d="M 412.135,349.895 C 412.135,346.541 412.077,344.352 411.941,342.402 L 417.989,342.402 L 418.271,346.59 L 418.46,346.59 C 419.629,343.235 422.364,341.848 424.612,341.848 C 425.251,341.848 425.575,341.888 426.09,341.98 L 426.09,348.632 C 425.537,348.555 424.966,348.453 424.192,348.453 C 421.578,348.453 419.806,349.857 419.357,352.044 C 419.248,352.505 419.193,353.067 419.193,353.623 L 419.193,365.169 L 412.135,365.169 L 412.135,349.895 z"
   id="path193"
   style="fill:#9b9c9e" />
			<path
   d="M 428.666,359.021 C 429.966,359.821 432.664,360.709 434.764,360.709 C 436.906,360.709 437.786,360.005 437.786,358.841 C 437.786,357.635 437.083,357.066 434.477,356.191 C 429.723,354.604 427.906,352.045 427.962,349.337 C 427.962,345.059 431.595,341.849 437.244,341.849 C 439.886,341.849 442.219,342.49 443.612,343.189 L 442.393,348.082 C 441.373,347.524 439.372,346.781 437.459,346.781 C 435.751,346.781 434.762,347.479 434.762,348.594 C 434.762,349.714 435.643,350.277 438.435,351.249 C 442.77,352.745 444.535,354.976 444.586,358.287 C 444.586,362.569 441.278,365.684 434.762,365.684 C 431.783,365.684 429.125,364.992 427.39,364.058 L 428.666,359.021 z"
   id="path195"
   style="fill:#9b9c9e" />
			<path
   d="M 455.104,336.071 C 455.104,338.023 453.668,339.605 451.282,339.605 C 449.06,339.605 447.611,338.023 447.611,336.071 C 447.611,334.067 449.102,332.521 451.376,332.521 C 453.669,332.521 455.066,334.067 455.104,336.071 M 447.815,342.401 L 454.887,342.401 L 454.887,365.168 L 447.815,365.168 L 447.815,342.401 z"
   id="path197"
   style="fill:#9b9c9e" />
			<path
   d="M 481.518,332.101 L 481.518,358.378 C 481.518,360.932 481.614,363.64 481.722,365.168 L 475.435,365.168 L 475.15,361.874 L 475.011,361.874 C 473.606,364.379 470.825,365.683 467.897,365.683 C 462.477,365.683 458.139,361.079 458.139,354.001 C 458.102,346.303 462.898,341.847 468.347,341.847 C 471.193,341.847 473.333,342.864 474.365,344.402 L 474.445,344.402 L 474.445,332.101 L 481.518,332.101 L 481.518,332.101 z M 474.444,352.043 C 474.444,351.672 474.444,351.157 474.364,350.735 C 473.926,348.868 472.396,347.286 470.214,347.286 C 466.948,347.286 465.321,350.172 465.321,353.765 C 465.321,357.633 467.236,360.041 470.175,360.041 C 472.205,360.041 473.89,358.655 474.308,356.651 C 474.403,356.14 474.445,355.579 474.445,355.018 L 474.445,352.043 L 474.444,352.043 z"
   id="path199"
   style="fill:#9b9c9e" />
			<path
   d="M 505.069,359.677 C 505.069,361.821 505.152,363.916 505.434,365.168 L 499.038,365.168 L 498.621,362.891 L 498.5,362.891 C 497.008,364.706 494.677,365.683 491.968,365.683 C 487.373,365.683 484.623,362.335 484.623,358.702 C 484.623,352.783 489.921,349.989 497.984,349.989 L 497.984,349.713 C 497.984,348.453 497.333,346.734 493.836,346.734 C 491.505,346.734 489.026,347.523 487.545,348.454 L 486.25,343.891 C 487.817,343.003 490.938,341.848 495.097,341.848 C 502.686,341.848 505.07,346.304 505.07,351.709 L 505.07,359.677 L 505.069,359.677 z M 498.212,354.419 C 494.486,354.419 491.601,355.302 491.601,358.005 C 491.601,359.82 492.82,360.708 494.391,360.708 C 496.112,360.708 497.602,359.535 498.079,358.094 C 498.159,357.727 498.212,357.305 498.212,356.885 L 498.212,354.419 z"
   id="path201"
   style="fill:#9b9c9e" />
			<path
   d="M 531.658,332.101 L 531.658,358.378 C 531.658,360.932 531.752,363.64 531.85,365.168 L 525.561,365.168 L 525.287,361.874 L 525.141,361.874 C 523.745,364.379 520.954,365.683 518.027,365.683 C 512.618,365.683 508.283,361.079 508.283,354.001 C 508.23,346.303 513.039,341.847 518.473,341.847 C 521.319,341.847 523.462,342.864 524.49,344.402 L 524.587,344.402 L 524.587,332.101 L 531.658,332.101 L 531.658,332.101 z M 524.586,352.043 C 524.586,351.672 524.586,351.157 524.489,350.735 C 524.07,348.868 522.523,347.286 520.343,347.286 C 517.092,347.286 515.452,350.172 515.452,353.765 C 515.452,357.633 517.363,360.041 520.302,360.041 C 522.364,360.041 524.017,358.655 524.435,356.651 C 524.545,356.14 524.586,355.579 524.586,355.018 L 524.586,352.043 L 524.586,352.043 z"
   id="path203"
   style="fill:#9b9c9e" />
		</g><g
   id="g205"
   transform="matrix(3.6314058,0,0,3.6314058,-1085.1446,-787.82403)">
			<polygon
   points="540.276,362.754 557.815,337.001 557.815,336.871 541.783,336.871 541.783,333.426 563.193,333.426 563.193,335.918 545.679,361.584 545.679,361.719 563.42,361.719 563.42,365.156 540.276,365.156 540.276,362.754 "
   id="polygon207" />
			<path
   d="M 585.895,359.687 C 585.895,361.677 585.988,363.601 586.226,365.157 L 582.524,365.157 L 582.186,362.285 L 582.052,362.285 C 580.774,364.071 578.326,365.679 575.075,365.679 C 570.478,365.679 568.111,362.431 568.111,359.13 C 568.111,353.629 573.003,350.612 581.808,350.655 L 581.808,350.187 C 581.808,348.344 581.299,344.91 576.632,344.959 C 574.454,344.959 572.252,345.573 570.652,346.657 L 569.709,343.875 C 571.595,342.7 574.374,341.891 577.238,341.891 C 584.211,341.891 585.894,346.658 585.894,351.166 L 585.894,359.687 L 585.895,359.687 z M 581.902,353.534 C 577.385,353.431 572.253,354.231 572.253,358.662 C 572.253,361.381 574.04,362.619 576.122,362.619 C 579.119,362.619 581.067,360.729 581.716,358.795 C 581.862,358.329 581.903,357.86 581.903,357.476 L 581.903,353.534 L 581.902,353.534 z"
   id="path209" />
			<path
   d="M 594.172,349.486 C 594.172,346.798 594.121,344.489 593.985,342.362 L 597.614,342.362 L 597.801,346.892 L 597.937,346.892 C 598.971,343.829 601.512,341.888 604.295,341.888 C 604.721,341.888 605.044,341.949 605.421,341.993 L 605.421,345.902 C 605.005,345.8 604.573,345.8 604.012,345.8 C 601.095,345.8 599.013,347.965 598.458,351.071 C 598.368,351.65 598.312,352.351 598.312,353.009 L 598.312,365.155 L 594.171,365.155 L 594.171,349.486 L 594.172,349.486 z"
   id="path211" />
			<path
   d="M 626.899,359.687 C 626.899,361.677 626.994,363.601 627.235,365.157 L 623.51,365.157 L 623.188,362.285 L 623.042,362.285 C 621.764,364.071 619.32,365.679 616.081,365.679 C 611.456,365.679 609.105,362.431 609.105,359.13 C 609.105,353.629 613.995,350.612 622.798,350.655 L 622.798,350.187 C 622.798,348.344 622.287,344.91 617.622,344.959 C 615.461,344.959 613.257,345.573 611.644,346.657 L 610.705,343.875 C 612.596,342.7 615.369,341.891 618.23,341.891 C 625.204,341.891 626.898,346.658 626.898,351.166 L 626.898,359.687 L 626.899,359.687 z M 622.907,353.534 C 618.38,353.431 613.258,354.231 613.258,358.662 C 613.258,361.381 615.045,362.619 617.116,362.619 C 620.124,362.619 622.06,360.729 622.704,358.795 C 622.855,358.329 622.907,357.86 622.907,357.476 L 622.907,353.534 L 622.907,353.534 z"
   id="path213" />
			<path
   d="M 654.654,361.812 C 654.654,367.08 653.577,370.239 651.398,372.269 C 649.143,374.285 645.945,374.996 643.07,374.996 C 640.326,374.996 637.329,374.34 635.488,373.108 L 636.521,369.905 C 638.026,370.905 640.381,371.745 643.216,371.745 C 647.438,371.745 650.552,369.526 650.552,363.742 L 650.552,361.248 L 650.458,361.248 C 649.236,363.372 646.749,365.063 643.216,365.063 C 637.571,365.063 633.512,360.252 633.512,353.949 C 633.512,346.233 638.537,341.891 643.82,341.891 C 647.784,341.891 649.892,343.922 650.931,345.802 L 651.025,345.802 L 651.157,342.363 L 654.827,342.363 C 654.708,343.973 654.654,345.843 654.654,348.579 L 654.654,361.812 L 654.654,361.812 z M 650.515,351.363 C 650.515,350.654 650.459,350.045 650.259,349.526 C 649.52,347.082 647.546,345.108 644.479,345.108 C 640.528,345.108 637.692,348.438 637.692,353.713 C 637.692,358.186 640.006,361.913 644.441,361.913 C 647.033,361.913 649.331,360.306 650.179,357.673 C 650.42,356.96 650.515,356.167 650.515,355.452 L 650.515,351.363 L 650.515,351.363 z"
   id="path215" />
			<path
   d="M 683.67,353.571 C 683.67,362.001 677.798,365.677 672.326,365.677 C 666.211,365.677 661.403,361.152 661.403,353.948 C 661.403,346.377 666.44,341.89 672.703,341.89 C 679.25,341.891 683.67,346.657 683.67,353.571 M 665.648,353.808 C 665.648,358.795 668.468,362.565 672.513,362.565 C 676.466,362.565 679.437,358.855 679.437,353.714 C 679.437,349.864 677.516,345.013 672.607,345.013 C 667.758,345.013 665.648,349.526 665.648,353.808"
   id="path217" />
			<path
   d="M 687.567,362.754 L 697.823,349.333 C 698.858,348.064 699.81,346.987 700.836,345.758 L 700.836,345.664 L 688.497,345.664 L 688.497,342.362 L 705.818,342.362 L 705.818,344.959 L 695.644,358.187 C 694.665,359.461 693.776,360.629 692.744,361.774 L 692.744,361.862 L 706.009,361.862 L 706.009,365.157 L 687.568,365.157 L 687.568,362.754 L 687.567,362.754 z"
   id="path219" />
			<path
   d="M 727.874,359.687 C 727.874,361.677 727.97,363.601 728.198,365.157 L 724.477,365.157 L 724.166,362.285 L 724.006,362.285 C 722.741,364.071 720.294,365.679 717.027,365.679 C 712.43,365.679 710.08,362.431 710.08,359.13 C 710.08,353.629 714.973,350.612 723.774,350.655 L 723.774,350.187 C 723.774,348.344 723.263,344.91 718.587,344.959 C 716.423,344.959 714.217,345.573 712.619,346.657 L 711.677,343.875 C 713.559,342.7 716.343,341.891 719.204,341.891 C 726.18,341.891 727.872,346.658 727.872,351.166 L 727.872,359.687 L 727.874,359.687 z M 723.871,353.534 C 719.355,353.431 714.219,354.231 714.219,358.662 C 714.219,361.381 716.009,362.619 718.076,362.619 C 721.089,362.619 723.021,360.729 723.683,358.795 C 723.828,358.329 723.871,357.86 723.871,357.476 L 723.871,353.534 L 723.871,353.534 z"
   id="path221" />
		</g>
<g
   id="Capa_3">
</g>
<g
   id="Capa_2">
</g>
</svg>